<?xml version="1.0" encoding="UTF-8"?>
<svg xmlns="http://www.w3.org/2000/svg" xmlns:xlink="http://www.w3.org/1999/xlink" width="600" height="450" viewBox="0 0 600 450">
<defs>
<g>
<g id="glyph-0-0-473eafe9">
<path d="M 4.859375 0 C 4.859375 0 3.625 0 3.625 0 C 3.625 0 3.625 -7.0625 3.625 -7.0625 C 3.625 -7.0625 1.421875 -7.0625 1.421875 -7.0625 C 1.421875 -7.0625 1.421875 -7.953125 1.421875 -7.953125 C 3.328125 -8.1875 3.609375 -8.40625 4.046875 -9.921875 C 4.046875 -9.921875 4.859375 -9.921875 4.859375 -9.921875 C 4.859375 -9.921875 4.859375 0 4.859375 0 Z M 4.859375 0 "/>
</g>
<g id="glyph-0-1-473eafe9">
<path d="M 7.1875 -3.296875 C 7.1875 -1.1875 5.78125 0.203125 3.78125 0.203125 C 2.015625 0.203125 0.890625 -0.578125 0.484375 -2.546875 C 0.484375 -2.546875 1.71875 -2.546875 1.71875 -2.546875 C 2.015625 -1.421875 2.671875 -0.875 3.75 -0.875 C 5.09375 -0.875 5.921875 -1.6875 5.921875 -3.125 C 5.921875 -4.59375 5.078125 -5.453125 3.75 -5.453125 C 2.984375 -5.453125 2.5 -5.203125 1.9375 -4.515625 C 1.9375 -4.515625 0.796875 -4.515625 0.796875 -4.515625 C 0.796875 -4.515625 1.546875 -9.71875 1.546875 -9.71875 C 1.546875 -9.71875 6.65625 -9.71875 6.65625 -9.71875 C 6.65625 -9.71875 6.65625 -8.5 6.65625 -8.5 C 6.65625 -8.5 2.53125 -8.5 2.53125 -8.5 C 2.53125 -8.5 2.140625 -5.9375 2.140625 -5.9375 C 2.71875 -6.359375 3.28125 -6.53125 3.96875 -6.53125 C 5.875 -6.53125 7.1875 -5.25 7.1875 -3.296875 Z M 7.1875 -3.296875 "/>
</g>
<g id="glyph-0-2-473eafe9">
<path d="M 7.15625 -7.015625 C 7.15625 -5.796875 6.4375 -4.765625 5.046875 -4.015625 C 5.046875 -4.015625 3.65625 -3.265625 3.65625 -3.265625 C 2.4375 -2.546875 1.984375 -2.03125 1.859375 -1.21875 C 1.859375 -1.21875 7.078125 -1.21875 7.078125 -1.21875 C 7.078125 -1.21875 7.078125 0 7.078125 0 C 7.078125 0 0.46875 0 0.46875 0 C 0.59375 -2.1875 1.1875 -3.125 3.265625 -4.296875 C 3.265625 -4.296875 4.546875 -5.03125 4.546875 -5.03125 C 5.4375 -5.53125 5.890625 -6.203125 5.890625 -6.984375 C 5.890625 -8.046875 5.046875 -8.84375 3.9375 -8.84375 C 2.71875 -8.84375 2.03125 -8.140625 1.9375 -6.484375 C 1.9375 -6.484375 0.703125 -6.484375 0.703125 -6.484375 C 0.765625 -8.890625 1.953125 -9.921875 3.96875 -9.921875 C 5.859375 -9.921875 7.15625 -8.6875 7.15625 -7.015625 Z M 7.15625 -7.015625 "/>
</g>
<g id="glyph-0-3-473eafe9">
<path d="M 7.078125 -2.890625 C 7.078125 -1.015625 5.765625 0.203125 3.71875 0.203125 C 1.6875 0.203125 0.609375 -0.78125 0.453125 -3 C 0.453125 -3 1.6875 -3 1.6875 -3 C 1.765625 -1.546875 2.421875 -0.875 3.765625 -0.875 C 5.046875 -0.875 5.828125 -1.625 5.828125 -2.875 C 5.828125 -3.96875 5.125 -4.625 3.765625 -4.625 C 3.765625 -4.625 3.09375 -4.625 3.09375 -4.625 C 3.09375 -4.625 3.09375 -5.65625 3.09375 -5.65625 C 5.0625 -5.65625 5.53125 -6.09375 5.53125 -7.15625 C 5.53125 -8.203125 4.875 -8.84375 3.78125 -8.84375 C 2.515625 -8.84375 1.921875 -8.1875 1.890625 -6.71875 C 1.890625 -6.71875 0.65625 -6.71875 0.65625 -6.71875 C 0.703125 -8.828125 1.765625 -9.921875 3.765625 -9.921875 C 5.65625 -9.921875 6.796875 -8.90625 6.796875 -7.203125 C 6.796875 -6.203125 6.328125 -5.5625 5.40625 -5.1875 C 6.59375 -4.78125 7.078125 -4.09375 7.078125 -2.890625 Z M 7.078125 -2.890625 "/>
</g>
<g id="glyph-0-4-473eafe9">
<path d="M 7.28125 -2.375 C 7.28125 -2.375 5.8125 -2.375 5.8125 -2.375 C 5.8125 -2.375 5.8125 0 5.8125 0 C 5.8125 0 4.578125 0 4.578125 0 C 4.578125 0 4.578125 -2.375 4.578125 -2.375 C 4.578125 -2.375 0.390625 -2.375 0.390625 -2.375 C 0.390625 -2.375 0.390625 -3.6875 0.390625 -3.6875 C 0.390625 -3.6875 4.90625 -9.921875 4.90625 -9.921875 C 4.90625 -9.921875 5.8125 -9.921875 5.8125 -9.921875 C 5.8125 -9.921875 5.8125 -3.484375 5.8125 -3.484375 C 5.8125 -3.484375 7.28125 -3.484375 7.28125 -3.484375 C 7.28125 -3.484375 7.28125 -2.375 7.28125 -2.375 Z M 4.578125 -3.484375 C 4.578125 -3.484375 4.578125 -7.828125 4.578125 -7.828125 C 4.578125 -7.828125 1.46875 -3.484375 1.46875 -3.484375 C 1.46875 -3.484375 4.578125 -3.484375 4.578125 -3.484375 Z M 4.578125 -3.484375 "/>
</g>
<g id="glyph-0-5-473eafe9">
<path d="M 7.1875 -3.078125 C 7.1875 -1.140625 5.828125 0.203125 3.9375 0.203125 C 1.671875 0.203125 0.609375 -1.421875 0.609375 -4.515625 C 0.609375 -7.984375 1.84375 -9.921875 4.15625 -9.921875 C 5.671875 -9.921875 6.734375 -8.953125 6.96875 -7.34375 C 6.96875 -7.34375 5.734375 -7.34375 5.734375 -7.34375 C 5.546875 -8.28125 4.9375 -8.828125 4.078125 -8.828125 C 2.65625 -8.828125 1.875 -7.484375 1.859375 -5.0625 C 2.390625 -5.796875 3.15625 -6.171875 4.140625 -6.171875 C 5.921875 -6.171875 7.1875 -4.921875 7.1875 -3.078125 Z M 5.921875 -2.984375 C 5.921875 -4.3125 5.1875 -5.078125 3.984375 -5.078125 C 2.765625 -5.078125 1.9375 -4.28125 1.9375 -3.046875 C 1.9375 -1.78125 2.796875 -0.875 3.953125 -0.875 C 5.078125 -0.875 5.921875 -1.734375 5.921875 -2.984375 Z M 5.921875 -2.984375 "/>
</g>
<g id="glyph-0-6-473eafe9">
<path d="M 7.28125 -8.6875 C 5.1875 -6.203125 3.796875 -3.203125 3.25 0 C 3.25 0 1.9375 0 1.9375 0 C 2.625 -3.109375 4.03125 -6 6 -8.5 C 6 -8.5 0.640625 -8.5 0.640625 -8.5 C 0.640625 -8.5 0.640625 -9.71875 0.640625 -9.71875 C 0.640625 -9.71875 7.28125 -9.71875 7.28125 -9.71875 C 7.28125 -9.71875 7.28125 -8.6875 7.28125 -8.6875 Z M 7.28125 -8.6875 "/>
</g>
<g id="glyph-0-7-473eafe9">
<path d="M 7.125 -5.1875 C 7.125 -1.765625 5.875 0.203125 3.5625 0.203125 C 2.046875 0.203125 0.984375 -0.75 0.734375 -2.375 C 0.734375 -2.375 1.96875 -2.375 1.96875 -2.375 C 2.171875 -1.421875 2.765625 -0.875 3.640625 -0.875 C 5.046875 -0.875 5.84375 -2.21875 5.859375 -4.640625 C 5.203125 -3.875 4.515625 -3.546875 3.578125 -3.546875 C 1.796875 -3.546875 0.53125 -4.78125 0.53125 -6.640625 C 0.53125 -8.578125 1.890625 -9.921875 3.78125 -9.921875 C 6.046875 -9.921875 7.125 -8.296875 7.125 -5.1875 Z M 5.78125 -6.65625 C 5.78125 -7.953125 4.90625 -8.84375 3.765625 -8.84375 C 2.625 -8.84375 1.796875 -8 1.796875 -6.734375 C 1.796875 -5.40625 2.53125 -4.640625 3.71875 -4.640625 C 4.921875 -4.640625 5.78125 -5.453125 5.78125 -6.65625 Z M 5.78125 -6.65625 "/>
</g>
<g id="glyph-0-8-473eafe9">
<path d="M 7.09375 -4.78125 C 7.09375 -1.515625 5.953125 0.203125 3.84375 0.203125 C 1.71875 0.203125 0.609375 -1.515625 0.609375 -4.859375 C 0.609375 -8.1875 1.703125 -9.921875 3.84375 -9.921875 C 6 -9.921875 7.09375 -8.21875 7.09375 -4.78125 Z M 5.84375 -4.890625 C 5.84375 -7.546875 5.1875 -8.828125 3.84375 -8.828125 C 2.515625 -8.828125 1.859375 -7.5625 1.859375 -4.84375 C 1.859375 -2.125 2.515625 -0.8125 3.828125 -0.8125 C 5.1875 -0.8125 5.84375 -2.078125 5.84375 -4.890625 Z M 5.84375 -4.890625 "/>
</g>
<g id="glyph-0-9-473eafe9">
<path d="M 9.484375 -3.71875 C 9.171875 -1.0625 7.765625 0.25 5.28125 0.25 C 2.28125 0.25 0.671875 -2 0.671875 -4.984375 C 0.671875 -7.96875 2.234375 -10.453125 5.328125 -10.453125 C 7.578125 -10.453125 8.859375 -9.28125 9.265625 -7.046875 C 9.265625 -7.046875 7.9375 -7.046875 7.9375 -7.046875 C 7.609375 -8.59375 6.78125 -9.3125 5.1875 -9.3125 C 3.203125 -9.3125 1.96875 -7.609375 1.96875 -5 C 1.96875 -2.453125 3.265625 -0.890625 5.296875 -0.890625 C 7.015625 -0.890625 7.828125 -1.796875 8.140625 -3.71875 C 8.140625 -3.71875 9.484375 -3.71875 9.484375 -3.71875 Z M 9.484375 -3.71875 "/>
</g>
<g id="glyph-0-10-473eafe9">
<path d="M 9.34375 -5.109375 C 9.34375 -1.9375 7.75 0 5.1875 0 C 5.1875 0 1.25 0 1.25 0 C 1.25 0 1.25 -10.203125 1.25 -10.203125 C 1.25 -10.203125 5.1875 -10.203125 5.1875 -10.203125 C 7.765625 -10.203125 9.34375 -8.28125 9.34375 -5.109375 Z M 8.03125 -5.09375 C 8.03125 -7.703125 6.96875 -9.0625 4.953125 -9.0625 C 4.953125 -9.0625 2.546875 -9.0625 2.546875 -9.0625 C 2.546875 -9.0625 2.546875 -1.140625 2.546875 -1.140625 C 2.546875 -1.140625 4.953125 -1.140625 4.953125 -1.140625 C 6.96875 -1.140625 8.03125 -2.515625 8.03125 -5.09375 Z M 8.03125 -5.09375 "/>
</g>
<g id="glyph-0-11-473eafe9">
<path d="M 2.703125 0 C 2.703125 0 1.40625 0 1.40625 0 C 1.40625 0 1.40625 -10.203125 1.40625 -10.203125 C 1.40625 -10.203125 2.703125 -10.203125 2.703125 -10.203125 C 2.703125 -10.203125 2.703125 0 2.703125 0 Z M 2.703125 0 "/>
</g>
<g id="glyph-0-12-473eafe9">
<path d="M 8.6875 -2.796875 C 8.6875 -0.984375 7.296875 0.25 4.703125 0.25 C 2.296875 0.25 0.671875 -0.90625 0.671875 -3.3125 C 0.671875 -3.3125 1.90625 -3.3125 1.90625 -3.3125 C 1.90625 -1.859375 2.859375 -0.890625 4.78125 -0.890625 C 6.546875 -0.890625 7.390625 -1.546875 7.390625 -2.671875 C 7.390625 -3.46875 6.796875 -3.984375 5.515625 -4.328125 C 5.515625 -4.328125 2.984375 -5 2.984375 -5 C 1.640625 -5.34375 0.984375 -6.125 0.984375 -7.375 C 0.984375 -9.21875 2.359375 -10.453125 4.609375 -10.453125 C 6.953125 -10.453125 8.34375 -9.296875 8.34375 -7.296875 C 8.34375 -7.296875 7.109375 -7.296875 7.109375 -7.296875 C 7.109375 -8.625 6.1875 -9.359375 4.5625 -9.359375 C 3.1875 -9.359375 2.28125 -8.59375 2.28125 -7.5625 C 2.28125 -6.78125 2.734375 -6.375 3.96875 -6.046875 C 3.96875 -6.046875 6.53125 -5.359375 6.53125 -5.359375 C 7.90625 -4.984375 8.6875 -4.0625 8.6875 -2.796875 Z M 8.6875 -2.796875 "/>
</g>
<g id="glyph-0-13-473eafe9">
<path d="M 8.640625 -7.203125 C 8.640625 -5.515625 7.46875 -4.328125 5.78125 -4.328125 C 5.78125 -4.328125 2.578125 -4.328125 2.578125 -4.328125 C 2.578125 -4.328125 2.578125 0 2.578125 0 C 2.578125 0 1.28125 0 1.28125 0 C 1.28125 0 1.28125 -10.203125 1.28125 -10.203125 C 1.28125 -10.203125 5.484375 -10.203125 5.484375 -10.203125 C 7.5 -10.203125 8.640625 -9.125 8.640625 -7.203125 Z M 7.28125 -7.265625 C 7.28125 -8.390625 6.53125 -9.0625 5.296875 -9.0625 C 5.296875 -9.0625 2.578125 -9.0625 2.578125 -9.0625 C 2.578125 -9.0625 2.578125 -5.46875 2.578125 -5.46875 C 2.578125 -5.46875 5.296875 -5.46875 5.296875 -5.46875 C 6.53125 -5.46875 7.28125 -6.140625 7.28125 -7.265625 Z M 7.28125 -7.265625 "/>
</g>
<g id="glyph-0-14-473eafe9">
<path d="M 10.390625 -4.9375 C 10.390625 -1.953125 8.453125 0.25 5.453125 0.25 C 2.515625 0.25 0.53125 -1.828125 0.53125 -5.03125 C 0.53125 -8.21875 2.515625 -10.453125 5.453125 -10.453125 C 8.4375 -10.453125 10.390625 -8.234375 10.390625 -4.9375 Z M 9.09375 -4.96875 C 9.09375 -7.546875 7.65625 -9.3125 5.453125 -9.3125 C 3.296875 -9.3125 1.828125 -7.546875 1.828125 -5.03125 C 1.828125 -2.5 3.296875 -0.890625 5.453125 -0.890625 C 7.609375 -0.890625 9.09375 -2.5 9.09375 -4.96875 Z M 9.09375 -4.96875 "/>
</g>
<g id="glyph-0-15-473eafe9">
<path d="M 8.296875 -9.0625 C 8.296875 -9.0625 4.953125 -9.0625 4.953125 -9.0625 C 4.953125 -9.0625 4.953125 0 4.953125 0 C 4.953125 0 3.65625 0 3.65625 0 C 3.65625 0 3.65625 -9.0625 3.65625 -9.0625 C 3.65625 -9.0625 0.296875 -9.0625 0.296875 -9.0625 C 0.296875 -9.0625 0.296875 -10.203125 0.296875 -10.203125 C 0.296875 -10.203125 8.296875 -10.203125 8.296875 -10.203125 C 8.296875 -10.203125 8.296875 -9.0625 8.296875 -9.0625 Z M 8.296875 -9.0625 "/>
</g>
<g id="glyph-1-0-473eafe9">
<path d="M 7.09375 -4.78125 C 7.09375 -1.515625 5.953125 0.203125 3.84375 0.203125 C 1.71875 0.203125 0.609375 -1.515625 0.609375 -4.859375 C 0.609375 -8.1875 1.703125 -9.921875 3.84375 -9.921875 C 6 -9.921875 7.09375 -8.21875 7.09375 -4.78125 Z M 5.84375 -4.890625 C 5.84375 -7.546875 5.1875 -8.828125 3.84375 -8.828125 C 2.515625 -8.828125 1.859375 -7.5625 1.859375 -4.84375 C 1.859375 -2.125 2.515625 -0.8125 3.828125 -0.8125 C 5.1875 -0.8125 5.84375 -2.078125 5.84375 -4.890625 Z M 5.84375 -4.890625 "/>
</g>
<g id="glyph-2-0-473eafe9">
<path d="M 7.1875 -2.796875 C 7.1875 -1 5.8125 0.203125 3.84375 0.203125 C 1.890625 0.203125 0.515625 -1 0.515625 -2.8125 C 0.515625 -3.90625 1.078125 -4.671875 2.21875 -5.21875 C 1.203125 -5.859375 0.875 -6.359375 0.875 -7.28125 C 0.875 -8.828125 2.09375 -9.921875 3.84375 -9.921875 C 5.609375 -9.921875 6.828125 -8.828125 6.828125 -7.28125 C 6.828125 -6.34375 6.5 -5.84375 5.46875 -5.21875 C 6.625 -4.671875 7.1875 -3.90625 7.1875 -2.796875 Z M 5.578125 -7.25 C 5.578125 -8.21875 4.90625 -8.828125 3.84375 -8.828125 C 2.8125 -8.828125 2.125 -8.21875 2.125 -7.265625 C 2.125 -6.328125 2.8125 -5.71875 3.84375 -5.71875 C 4.890625 -5.71875 5.578125 -6.328125 5.578125 -7.25 Z M 5.921875 -2.78125 C 5.921875 -3.953125 5.078125 -4.671875 3.84375 -4.671875 C 2.625 -4.671875 1.78125 -3.953125 1.78125 -2.78125 C 1.78125 -1.625 2.625 -0.875 3.828125 -0.875 C 5.078125 -0.875 5.921875 -1.609375 5.921875 -2.78125 Z M 5.921875 -2.78125 "/>
</g>
<g id="glyph-3-0-473eafe9">
<path d="M 7.09375 -4.78125 C 7.09375 -1.515625 5.953125 0.203125 3.84375 0.203125 C 1.71875 0.203125 0.609375 -1.515625 0.609375 -4.859375 C 0.609375 -8.1875 1.703125 -9.921875 3.84375 -9.921875 C 6 -9.921875 7.09375 -8.21875 7.09375 -4.78125 Z M 5.84375 -4.890625 C 5.84375 -7.546875 5.1875 -8.828125 3.84375 -8.828125 C 2.515625 -8.828125 1.859375 -7.5625 1.859375 -4.84375 C 1.859375 -2.125 2.515625 -0.8125 3.828125 -0.8125 C 5.1875 -0.8125 5.84375 -2.078125 5.84375 -4.890625 Z M 5.84375 -4.890625 "/>
</g>
<g id="glyph-4-0-473eafe9">
<path d="M 9.59375 -3.484375 C 9.46875 -1.140625 7.765625 0.171875 5.234375 0.171875 C 2.390625 0.171875 0.609375 -1.8125 0.609375 -5.09375 C 0.609375 -8.40625 2.40625 -10.375 5.296875 -10.375 C 7.59375 -10.375 9.359375 -9.09375 9.546875 -6.75 C 9.546875 -6.75 7.546875 -6.75 7.546875 -6.75 C 7.234375 -8.0625 6.5 -8.578125 5.359375 -8.578125 C 3.703125 -8.578125 2.71875 -7.328125 2.71875 -5.0625 C 2.71875 -2.84375 3.671875 -1.59375 5.296875 -1.59375 C 6.59375 -1.59375 7.421875 -2.1875 7.546875 -3.484375 C 7.546875 -3.484375 9.59375 -3.484375 9.59375 -3.484375 Z M 9.59375 -3.484375 "/>
</g>
<g id="glyph-4-1-473eafe9">
<path d="M 9.53125 -5.109375 C 9.53125 -3.53125 9.09375 -2.140625 8.28125 -1.1875 C 7.59375 -0.359375 6.625 0 5.0625 0 C 5.0625 0 1.078125 0 1.078125 0 C 1.078125 0 1.078125 -10.203125 1.078125 -10.203125 C 1.078125 -10.203125 5.0625 -10.203125 5.0625 -10.203125 C 6.640625 -10.203125 7.609375 -9.859375 8.28125 -9.03125 C 9.09375 -8.0625 9.53125 -6.671875 9.53125 -5.109375 Z M 7.4375 -5.09375 C 7.4375 -7.34375 6.65625 -8.453125 5.0625 -8.453125 C 5.0625 -8.453125 3.171875 -8.453125 3.171875 -8.453125 C 3.171875 -8.453125 3.171875 -1.75 3.171875 -1.75 C 3.171875 -1.75 5.0625 -1.75 5.0625 -1.75 C 6.65625 -1.75 7.4375 -2.859375 7.4375 -5.09375 Z M 7.4375 -5.09375 "/>
</g>
<g id="glyph-4-2-473eafe9">
<path d="M 2.984375 0 C 2.984375 0 0.875 0 0.875 0 C 0.875 0 0.875 -10.203125 0.875 -10.203125 C 0.875 -10.203125 2.984375 -10.203125 2.984375 -10.203125 C 2.984375 -10.203125 2.984375 0 2.984375 0 Z M 2.984375 0 "/>
</g>
<g id="glyph-4-3-473eafe9">
<path d="M 8.859375 -3.0625 C 8.859375 -1 7.3125 0.171875 4.671875 0.171875 C 2.078125 0.171875 0.453125 -1.015625 0.453125 -3.203125 C 0.453125 -3.203125 2.484375 -3.203125 2.484375 -3.203125 C 2.484375 -2.109375 3.359375 -1.515625 4.78125 -1.515625 C 6.0625 -1.515625 6.84375 -1.953125 6.84375 -2.8125 C 6.84375 -3.640625 6.328125 -3.9375 4.921875 -4.21875 C 4.921875 -4.21875 3.5 -4.5 3.5 -4.5 C 1.421875 -4.90625 0.625 -5.640625 0.625 -7.234375 C 0.625 -9.21875 2.046875 -10.375 4.5 -10.375 C 6.984375 -10.375 8.5 -9.25 8.5 -7.09375 C 8.5 -7.09375 6.53125 -7.09375 6.53125 -7.09375 C 6.53125 -8.140625 5.71875 -8.6875 4.390625 -8.6875 C 3.3125 -8.6875 2.625 -8.203125 2.625 -7.4375 C 2.625 -6.6875 3.0625 -6.390625 4.5625 -6.109375 C 4.5625 -6.109375 6.15625 -5.796875 6.15625 -5.796875 C 8.046875 -5.4375 8.859375 -4.671875 8.859375 -3.0625 Z M 8.859375 -3.0625 "/>
</g>
<g id="glyph-4-4-473eafe9">
<path d="M 8.859375 -7.046875 C 8.859375 -4.96875 7.65625 -3.640625 5.78125 -3.640625 C 5.78125 -3.640625 3.15625 -3.640625 3.15625 -3.640625 C 3.15625 -3.640625 3.15625 0 3.15625 0 C 3.15625 0 1.0625 0 1.0625 0 C 1.0625 0 1.0625 -10.203125 1.0625 -10.203125 C 1.0625 -10.203125 5.578125 -10.203125 5.578125 -10.203125 C 7.703125 -10.203125 8.859375 -9.09375 8.859375 -7.046875 Z M 6.765625 -6.921875 C 6.765625 -7.96875 6.25 -8.453125 5.125 -8.453125 C 5.125 -8.453125 3.15625 -8.453125 3.15625 -8.453125 C 3.15625 -8.453125 3.15625 -5.390625 3.15625 -5.390625 C 3.15625 -5.390625 5.125 -5.390625 5.125 -5.390625 C 6.25 -5.390625 6.765625 -5.875 6.765625 -6.921875 Z M 6.765625 -6.921875 "/>
</g>
<g id="glyph-4-5-473eafe9">
<path d="M 8.109375 0 C 8.109375 0 1.125 0 1.125 0 C 1.125 0 1.125 -10.203125 1.125 -10.203125 C 1.125 -10.203125 3.21875 -10.203125 3.21875 -10.203125 C 3.21875 -10.203125 3.21875 -1.75 3.21875 -1.75 C 3.21875 -1.75 8.109375 -1.75 8.109375 -1.75 C 8.109375 -1.75 8.109375 0 8.109375 0 Z M 8.109375 0 "/>
</g>
<g id="glyph-4-6-473eafe9">
<path d="M 10.390625 -5.046875 C 10.390625 -2.0625 8.4375 0.171875 5.46875 0.171875 C 2.484375 0.171875 0.5625 -2.0625 0.5625 -5.109375 C 0.5625 -8.03125 2.46875 -10.375 5.453125 -10.375 C 8.4375 -10.375 10.390625 -8.125 10.390625 -5.046875 Z M 8.28125 -5.046875 C 8.28125 -7.1875 7.203125 -8.578125 5.46875 -8.578125 C 3.78125 -8.578125 2.65625 -7.171875 2.65625 -5.109375 C 2.65625 -2.96875 3.78125 -1.625 5.46875 -1.625 C 7.15625 -1.625 8.28125 -2.96875 8.28125 -5.046875 Z M 8.28125 -5.046875 "/>
</g>
<g id="glyph-4-7-473eafe9">
<path d="M 8.375 -8.453125 C 8.375 -8.453125 5.390625 -8.453125 5.390625 -8.453125 C 5.390625 -8.453125 5.390625 0 5.390625 0 C 5.390625 0 3.296875 0 3.296875 0 C 3.296875 0 3.296875 -8.453125 3.296875 -8.453125 C 3.296875 -8.453125 0.203125 -8.453125 0.203125 -8.453125 C 0.203125 -8.453125 0.203125 -10.203125 0.203125 -10.203125 C 0.203125 -10.203125 8.375 -10.203125 8.375 -10.203125 C 8.375 -10.203125 8.375 -8.453125 8.375 -8.453125 Z M 8.375 -8.453125 "/>
</g>
<g id="glyph-4-8-473eafe9">
<path d="M 7.234375 -4.9375 C 7.234375 -1.015625 5.84375 0.125 3.828125 0.125 C 0.953125 0.125 0.40625 -2.21875 0.40625 -5 C 0.40625 -7.859375 0.984375 -10.140625 3.828125 -10.140625 C 6.734375 -10.140625 7.234375 -7.75 7.234375 -4.9375 Z M 5.28125 -4.984375 C 5.28125 -8.0625 4.78125 -8.546875 3.828125 -8.546875 C 2.765625 -8.546875 2.359375 -7.890625 2.359375 -5.015625 C 2.359375 -2.0625 2.828125 -1.546875 3.828125 -1.546875 C 4.875 -1.546875 5.28125 -2.203125 5.28125 -4.984375 Z M 5.28125 -4.984375 "/>
</g>
<g id="glyph-4-9-473eafe9">
<path d="M 5.296875 0 C 5.296875 0 3.328125 0 3.328125 0 C 3.328125 0 3.328125 -6.84375 3.328125 -6.84375 C 3.328125 -6.84375 0.953125 -6.84375 0.953125 -6.84375 C 0.953125 -6.84375 0.953125 -8.140625 0.953125 -8.140625 C 2.65625 -8.140625 3.6875 -8.75 3.984375 -9.921875 C 3.984375 -9.921875 5.296875 -9.921875 5.296875 -9.921875 C 5.296875 -9.921875 5.296875 0 5.296875 0 Z M 5.296875 0 "/>
</g>
<g id="glyph-4-10-473eafe9">
<path d="M 9.25 0 C 9.25 0 7.15625 0 7.15625 0 C 7.15625 0 3.046875 -7.0625 3.046875 -7.0625 C 3.046875 -7.0625 3.046875 0 3.046875 0 C 3.046875 0 0.953125 0 0.953125 0 C 0.953125 0 0.953125 -10.203125 0.953125 -10.203125 C 0.953125 -10.203125 3.109375 -10.203125 3.109375 -10.203125 C 3.109375 -10.203125 7.15625 -3.265625 7.15625 -3.265625 C 7.15625 -3.265625 7.15625 -10.203125 7.15625 -10.203125 C 7.15625 -10.203125 9.25 -10.203125 9.25 -10.203125 C 9.25 -10.203125 9.25 0 9.25 0 Z M 9.25 0 "/>
</g>
<g id="glyph-4-11-473eafe9">
<path d="M 7.578125 0 C 7.578125 0 5.609375 0 5.609375 0 C 5.609375 0 5.609375 -1 5.609375 -1 C 5.046875 -0.25 4.375 0.125 3.34375 0.125 C 1.734375 0.125 0.8125 -0.828125 0.8125 -2.484375 C 0.8125 -2.484375 0.8125 -7.5625 0.8125 -7.5625 C 0.8125 -7.5625 2.765625 -7.5625 2.765625 -7.5625 C 2.765625 -7.5625 2.765625 -2.890625 2.765625 -2.890625 C 2.765625 -1.984375 3.1875 -1.546875 4.03125 -1.546875 C 4.984375 -1.546875 5.609375 -2.125 5.609375 -3.03125 C 5.609375 -3.03125 5.609375 -7.5625 5.609375 -7.5625 C 5.609375 -7.5625 7.578125 -7.5625 7.578125 -7.5625 C 7.578125 -7.5625 7.578125 0 7.578125 0 Z M 7.578125 0 "/>
</g>
<g id="glyph-4-12-473eafe9">
<path d="M 11.53125 0 C 11.53125 0 9.578125 0 9.578125 0 C 9.578125 0 9.578125 -5.046875 9.578125 -5.046875 C 9.578125 -5.640625 9.171875 -6.015625 8.515625 -6.015625 C 7.671875 -6.015625 7.171875 -5.453125 7.171875 -4.53125 C 7.171875 -4.53125 7.171875 0 7.171875 0 C 7.171875 0 5.203125 0 5.203125 0 C 5.203125 0 5.203125 -5.046875 5.203125 -5.046875 C 5.203125 -5.640625 4.796875 -6.015625 4.140625 -6.015625 C 3.296875 -6.015625 2.796875 -5.453125 2.796875 -4.53125 C 2.796875 -4.53125 2.796875 0 2.796875 0 C 2.796875 0 0.84375 0 0.84375 0 C 0.84375 0 0.84375 -7.5625 0.84375 -7.5625 C 0.84375 -7.5625 2.78125 -7.5625 2.78125 -7.5625 C 2.78125 -7.5625 2.78125 -6.625 2.78125 -6.625 C 3.4375 -7.390625 3.984375 -7.6875 4.859375 -7.6875 C 5.796875 -7.6875 6.546875 -7.28125 6.921875 -6.5625 C 7.5 -7.34375 8.171875 -7.6875 9.125 -7.6875 C 10.640625 -7.6875 11.53125 -6.8125 11.53125 -5.34375 C 11.53125 -5.34375 11.53125 0 11.53125 0 Z M 11.53125 0 "/>
</g>
<g id="glyph-4-13-473eafe9">
<path d="M 8.046875 -3.6875 C 8.046875 -1.40625 6.671875 0.125 4.875 0.125 C 3.921875 0.125 3.265625 -0.21875 2.78125 -0.875 C 2.78125 -0.875 2.78125 0 2.78125 0 C 2.78125 0 0.828125 0 0.828125 0 C 0.828125 0 0.828125 -10.203125 0.828125 -10.203125 C 0.828125 -10.203125 2.78125 -10.203125 2.78125 -10.203125 C 2.78125 -10.203125 2.78125 -6.578125 2.78125 -6.578125 C 3.265625 -7.34375 3.9375 -7.6875 4.875 -7.6875 C 6.859375 -7.6875 8.046875 -5.828125 8.046875 -3.6875 Z M 6.09375 -3.765625 C 6.09375 -5.171875 5.40625 -6.046875 4.4375 -6.046875 C 3.453125 -6.046875 2.78125 -5.1875 2.78125 -3.8125 C 2.78125 -2.359375 3.4375 -1.515625 4.4375 -1.515625 C 5.40625 -1.515625 6.09375 -2.390625 6.09375 -3.765625 Z M 6.09375 -3.765625 "/>
</g>
<g id="glyph-4-14-473eafe9">
<path d="M 5.1875 -5.6875 C 4.90625 -5.71875 4.78125 -5.734375 4.5625 -5.734375 C 3.421875 -5.734375 2.84375 -5.171875 2.84375 -4.015625 C 2.84375 -4.015625 2.84375 0 2.84375 0 C 2.84375 0 0.875 0 0.875 0 C 0.875 0 0.875 -7.5625 0.875 -7.5625 C 0.875 -7.5625 2.84375 -7.5625 2.84375 -7.5625 C 2.84375 -7.5625 2.84375 -6.078125 2.84375 -6.078125 C 3.265625 -7.09375 4.046875 -7.6875 4.9375 -7.6875 C 5 -7.6875 5.0625 -7.6875 5.1875 -7.671875 C 5.1875 -7.671875 5.1875 -5.6875 5.1875 -5.6875 Z M 5.1875 -5.6875 "/>
</g>
<g id="glyph-4-15-473eafe9">
</g>
<g id="glyph-4-16-473eafe9">
<path d="M 7.96875 -3.71875 C 7.96875 -1.296875 6.53125 0.125 4.234375 0.125 C 1.90625 0.125 0.484375 -1.28125 0.484375 -3.78125 C 0.484375 -6.265625 1.90625 -7.6875 4.21875 -7.6875 C 6.578125 -7.6875 7.96875 -6.28125 7.96875 -3.71875 Z M 6 -3.75 C 6 -5.234375 5.3125 -6.109375 4.234375 -6.109375 C 3.15625 -6.109375 2.453125 -5.21875 2.453125 -3.78125 C 2.453125 -2.34375 3.15625 -1.453125 4.234375 -1.453125 C 5.28125 -1.453125 6 -2.34375 6 -3.75 Z M 6 -3.75 "/>
</g>
<g id="glyph-4-17-473eafe9">
<path d="M 4.375 -6.109375 C 4.375 -6.109375 3.21875 -6.109375 3.21875 -6.109375 C 3.21875 -6.109375 3.21875 0 3.21875 0 C 3.21875 0 1.265625 0 1.265625 0 C 1.265625 0 1.265625 -6.109375 1.265625 -6.109375 C 1.265625 -6.109375 0.203125 -6.109375 0.203125 -6.109375 C 0.203125 -6.109375 0.203125 -7.40625 0.203125 -7.40625 C 0.203125 -7.40625 1.265625 -7.40625 1.265625 -7.40625 C 1.265625 -7.40625 1.265625 -8.3125 1.265625 -8.3125 C 1.265625 -9.59375 1.890625 -10.203125 3.1875 -10.203125 C 3.453125 -10.203125 3.953125 -10.1875 4.3125 -10.15625 C 4.3125 -10.15625 4.3125 -8.6875 4.3125 -8.6875 C 4.140625 -8.71875 3.921875 -8.734375 3.75 -8.734375 C 3.390625 -8.734375 3.21875 -8.546875 3.21875 -8.140625 C 3.21875 -8.140625 3.21875 -7.40625 3.21875 -7.40625 C 3.21875 -7.40625 4.375 -7.40625 4.375 -7.40625 C 4.375 -7.40625 4.375 -6.109375 4.375 -6.109375 Z M 4.375 -6.109375 "/>
</g>
<g id="glyph-4-18-473eafe9">
<path d="M 7.34375 0 C 7.34375 0 5.203125 0 5.203125 0 C 5.03125 -0.21875 4.984375 -0.5625 4.984375 -0.953125 C 4.296875 -0.234375 3.53125 0.125 2.6875 0.125 C 1.421875 0.125 0.390625 -0.578125 0.390625 -2.046875 C 0.390625 -3.421875 1.125 -4.0625 2.625 -4.328125 C 2.625 -4.328125 3.40625 -4.46875 3.40625 -4.46875 C 4.375 -4.640625 4.96875 -4.546875 4.96875 -5.34375 C 4.96875 -5.859375 4.59375 -6.109375 3.84375 -6.109375 C 2.875 -6.109375 2.546875 -5.859375 2.453125 -5.0625 C 2.453125 -5.0625 0.5625 -5.0625 0.5625 -5.0625 C 0.6875 -6.8125 1.75 -7.6875 3.796875 -7.6875 C 5.84375 -7.6875 6.890625 -6.90625 6.890625 -5.359375 C 6.890625 -5.359375 6.890625 -1.15625 6.890625 -1.15625 C 6.890625 -0.765625 6.984375 -0.5625 7.34375 -0.234375 C 7.34375 -0.234375 7.34375 0 7.34375 0 Z M 4.96875 -3.234375 C 4.96875 -3.234375 4.96875 -3.5625 4.96875 -3.5625 C 4.75 -3.453125 4.65625 -3.4375 4.140625 -3.328125 C 4.140625 -3.328125 3.46875 -3.203125 3.46875 -3.203125 C 2.65625 -3.046875 2.359375 -2.84375 2.359375 -2.265625 C 2.359375 -1.703125 2.765625 -1.453125 3.421875 -1.453125 C 4.40625 -1.453125 4.96875 -2.09375 4.96875 -3.234375 Z M 4.96875 -3.234375 "/>
</g>
<g id="glyph-4-19-473eafe9">
<path d="M 8.03125 -3.78125 C 8.03125 -1.484375 6.6875 0.125 4.875 0.125 C 3.921875 0.125 3.25 -0.171875 2.765625 -1.015625 C 2.765625 -1.015625 2.765625 3.046875 2.765625 3.046875 C 2.765625 3.046875 0.8125 3.046875 0.8125 3.046875 C 0.8125 3.046875 0.8125 -7.5625 0.8125 -7.5625 C 0.8125 -7.5625 2.765625 -7.5625 2.765625 -7.5625 C 2.765625 -7.5625 2.765625 -6.4375 2.765625 -6.4375 C 3.25 -7.28125 3.921875 -7.6875 4.875 -7.6875 C 6.84375 -7.6875 8.03125 -6.015625 8.03125 -3.78125 Z M 6.078125 -3.75 C 6.078125 -5.1875 5.421875 -6.046875 4.421875 -6.046875 C 3.4375 -6.046875 2.765625 -5.1875 2.765625 -3.78125 C 2.765625 -2.359375 3.4375 -1.515625 4.421875 -1.515625 C 5.390625 -1.515625 6.078125 -2.375 6.078125 -3.75 Z M 6.078125 -3.75 "/>
</g>
<g id="glyph-4-20-473eafe9">
<path d="M 2.890625 0 C 2.890625 0 0.9375 0 0.9375 0 C 0.9375 0 0.9375 -10.203125 0.9375 -10.203125 C 0.9375 -10.203125 2.890625 -10.203125 2.890625 -10.203125 C 2.890625 -10.203125 2.890625 0 2.890625 0 Z M 2.890625 0 "/>
</g>
<g id="glyph-4-21-473eafe9">
<path d="M 7.34375 -3.5 C 7.34375 -3.5 7.34375 -3.265625 7.34375 -3.265625 C 7.34375 -3.265625 2.265625 -3.265625 2.265625 -3.265625 C 2.328125 -1.796875 2.90625 -1.375 3.84375 -1.375 C 4.546875 -1.375 5.171875 -1.578125 5.328125 -2.125 C 5.328125 -2.125 7.265625 -2.125 7.265625 -2.125 C 6.828125 -0.640625 5.453125 0.125 3.765625 0.125 C 1.625 0.125 0.3125 -1.265625 0.3125 -3.6875 C 0.3125 -6.21875 1.640625 -7.6875 3.8125 -7.6875 C 6.03125 -7.6875 7.34375 -6.109375 7.34375 -3.5 Z M 5.3125 -4.5625 C 5.203125 -5.640625 4.625 -6.1875 3.78125 -6.1875 C 2.90625 -6.1875 2.421875 -5.609375 2.296875 -4.5625 C 2.296875 -4.5625 5.3125 -4.5625 5.3125 -4.5625 Z M 5.3125 -4.5625 "/>
</g>
<g id="glyph-4-22-473eafe9">
<path d="M 7.28125 -2.234375 C 7.28125 -0.71875 6.109375 0.125 3.96875 0.125 C 1.6875 0.125 0.46875 -0.734375 0.40625 -2.390625 C 0.40625 -2.390625 2.328125 -2.390625 2.328125 -2.390625 C 2.484375 -1.578125 2.96875 -1.40625 3.859375 -1.40625 C 4.78125 -1.40625 5.3125 -1.59375 5.3125 -2.0625 C 5.3125 -2.265625 5.15625 -2.421875 4.65625 -2.578125 C 4.65625 -2.578125 2.328125 -3.296875 2.328125 -3.296875 C 0.921875 -3.734375 0.671875 -4.234375 0.671875 -5.171875 C 0.671875 -6.71875 1.859375 -7.6875 3.78125 -7.6875 C 5.8125 -7.6875 7.046875 -6.71875 7.0625 -5.125 C 7.0625 -5.125 5.1875 -5.125 5.1875 -5.125 C 5.171875 -5.8125 4.703125 -6.140625 3.765625 -6.140625 C 3.078125 -6.140625 2.625 -5.859375 2.625 -5.453125 C 2.625 -5.140625 2.765625 -5.015625 3.3125 -4.859375 C 3.3125 -4.859375 5.796875 -4.140625 5.796875 -4.140625 C 6.796875 -3.84375 7.28125 -3.203125 7.28125 -2.34375 C 7.28125 -2.34375 7.28125 -2.234375 7.28125 -2.234375 Z M 7.28125 -2.234375 "/>
</g>
<g id="glyph-4-23-473eafe9">
<path d="M 4.21875 0 C 3.859375 0.015625 3.515625 0.0625 3.078125 0.0625 C 1.796875 0.0625 1.15625 -0.4375 1.15625 -1.625 C 1.15625 -1.625 1.15625 -6.109375 1.15625 -6.109375 C 1.15625 -6.109375 0.203125 -6.109375 0.203125 -6.109375 C 0.203125 -6.109375 0.203125 -7.40625 0.203125 -7.40625 C 0.203125 -7.40625 1.15625 -7.40625 1.15625 -7.40625 C 1.15625 -7.40625 1.15625 -9.4375 1.15625 -9.4375 C 1.15625 -9.4375 3.125 -9.4375 3.125 -9.4375 C 3.125 -9.4375 3.125 -7.40625 3.125 -7.40625 C 3.125 -7.40625 4.21875 -7.40625 4.21875 -7.40625 C 4.21875 -7.40625 4.21875 -6.109375 4.21875 -6.109375 C 4.21875 -6.109375 3.125 -6.109375 3.125 -6.109375 C 3.125 -6.109375 3.125 -2.15625 3.125 -2.15625 C 3.125 -1.484375 3.25 -1.328125 3.765625 -1.328125 C 3.90625 -1.328125 4.015625 -1.34375 4.21875 -1.375 C 4.21875 -1.375 4.21875 0 4.21875 0 Z M 4.21875 0 "/>
</g>
<g id="glyph-4-24-473eafe9">
<path d="M 2.890625 0 C 2.890625 0 0.9375 0 0.9375 0 C 0.9375 0 0.9375 -7.5625 0.9375 -7.5625 C 0.9375 -7.5625 2.890625 -7.5625 2.890625 -7.5625 C 2.890625 -7.5625 2.890625 0 2.890625 0 Z M 2.921875 -8.46875 C 2.921875 -8.46875 0.96875 -8.46875 0.96875 -8.46875 C 0.96875 -8.46875 0.96875 -10.4375 0.96875 -10.4375 C 0.96875 -10.4375 2.921875 -10.4375 2.921875 -10.4375 C 2.921875 -10.4375 2.921875 -8.46875 2.921875 -8.46875 Z M 2.921875 -8.46875 "/>
</g>
<g id="glyph-4-25-473eafe9">
<path d="M 7.3125 -2.625 C 7.125 -1.015625 5.859375 0.125 4.015625 0.125 C 1.78125 0.125 0.46875 -1.234375 0.46875 -3.71875 C 0.46875 -6.296875 1.796875 -7.6875 4.046875 -7.6875 C 5.9375 -7.6875 7.171875 -6.578125 7.3125 -4.734375 C 7.3125 -4.734375 5.4375 -4.734375 5.4375 -4.734375 C 5.203125 -5.71875 4.828125 -6.109375 4.03125 -6.109375 C 2.796875 -6.109375 2.4375 -5.109375 2.4375 -3.71875 C 2.4375 -2.25 3.03125 -1.453125 4.03125 -1.453125 C 4.78125 -1.453125 5.1875 -1.828125 5.4375 -2.625 C 5.4375 -2.625 7.3125 -2.625 7.3125 -2.625 Z M 7.3125 -2.625 "/>
</g>
<g id="glyph-4-26-473eafe9">
<path d="M 7.640625 0 C 7.640625 0 5.6875 0 5.6875 0 C 5.6875 0 5.6875 -4.65625 5.6875 -4.65625 C 5.6875 -5.5625 5.265625 -6.015625 4.421875 -6.015625 C 3.46875 -6.015625 2.84375 -5.4375 2.84375 -4.53125 C 2.84375 -4.53125 2.84375 0 2.84375 0 C 2.84375 0 0.875 0 0.875 0 C 0.875 0 0.875 -7.5625 0.875 -7.5625 C 0.875 -7.5625 2.84375 -7.5625 2.84375 -7.5625 C 2.84375 -7.5625 2.84375 -6.46875 2.84375 -6.46875 C 3.40625 -7.3125 4.09375 -7.6875 5.109375 -7.6875 C 6.71875 -7.6875 7.640625 -6.734375 7.640625 -5.0625 C 7.640625 -5.0625 7.640625 0 7.640625 0 Z M 7.640625 0 "/>
</g>
<g id="glyph-5-0-473eafe9">
<path d="M -2.625 -7.3125 C -1.015625 -7.125 0.125 -5.859375 0.125 -4.015625 C 0.125 -1.78125 -1.234375 -0.46875 -3.71875 -0.46875 C -6.296875 -0.46875 -7.6875 -1.796875 -7.6875 -4.046875 C -7.6875 -5.9375 -6.578125 -7.171875 -4.734375 -7.3125 C -4.734375 -7.3125 -4.734375 -5.4375 -4.734375 -5.4375 C -5.71875 -5.203125 -6.109375 -4.828125 -6.109375 -4.03125 C -6.109375 -2.796875 -5.109375 -2.4375 -3.71875 -2.4375 C -2.25 -2.4375 -1.453125 -3.03125 -1.453125 -4.03125 C -1.453125 -4.78125 -1.828125 -5.1875 -2.625 -5.4375 C -2.625 -5.4375 -2.625 -7.3125 -2.625 -7.3125 Z M -2.625 -7.3125 "/>
</g>
<g id="glyph-6-0-473eafe9">
<path d="M -3.71875 -7.96875 C -1.296875 -7.96875 0.125 -6.53125 0.125 -4.234375 C 0.125 -1.90625 -1.28125 -0.484375 -3.78125 -0.484375 C -6.265625 -0.484375 -7.6875 -1.90625 -7.6875 -4.21875 C -7.6875 -6.578125 -6.28125 -7.96875 -3.71875 -7.96875 Z M -3.75 -6 C -5.234375 -6 -6.109375 -5.3125 -6.109375 -4.234375 C -6.109375 -3.15625 -5.21875 -2.453125 -3.78125 -2.453125 C -2.34375 -2.453125 -1.453125 -3.15625 -1.453125 -4.234375 C -1.453125 -5.28125 -2.34375 -6 -3.75 -6 Z M -3.75 -6 "/>
</g>
<g id="glyph-6-1-473eafe9">
<path d="M 0 -4.21875 C 0.015625 -3.859375 0.0625 -3.515625 0.0625 -3.078125 C 0.0625 -1.796875 -0.4375 -1.15625 -1.625 -1.15625 C -1.625 -1.15625 -6.109375 -1.15625 -6.109375 -1.15625 C -6.109375 -1.15625 -6.109375 -0.203125 -6.109375 -0.203125 C -6.109375 -0.203125 -7.40625 -0.203125 -7.40625 -0.203125 C -7.40625 -0.203125 -7.40625 -1.15625 -7.40625 -1.15625 C -7.40625 -1.15625 -9.4375 -1.15625 -9.4375 -1.15625 C -9.4375 -1.15625 -9.4375 -3.125 -9.4375 -3.125 C -9.4375 -3.125 -7.40625 -3.125 -7.40625 -3.125 C -7.40625 -3.125 -7.40625 -4.21875 -7.40625 -4.21875 C -7.40625 -4.21875 -6.109375 -4.21875 -6.109375 -4.21875 C -6.109375 -4.21875 -6.109375 -3.125 -6.109375 -3.125 C -6.109375 -3.125 -2.15625 -3.125 -2.15625 -3.125 C -1.484375 -3.125 -1.328125 -3.25 -1.328125 -3.765625 C -1.328125 -3.90625 -1.34375 -4.015625 -1.375 -4.21875 C -1.375 -4.21875 0 -4.21875 0 -4.21875 Z M 0 -4.21875 "/>
</g>
<g id="glyph-7-0-473eafe9">
<path d="M 0 -7.578125 C 0 -7.578125 0 -5.609375 0 -5.609375 C 0 -5.609375 -1 -5.609375 -1 -5.609375 C -0.25 -5.046875 0.125 -4.375 0.125 -3.34375 C 0.125 -1.734375 -0.828125 -0.8125 -2.484375 -0.8125 C -2.484375 -0.8125 -7.5625 -0.8125 -7.5625 -0.8125 C -7.5625 -0.8125 -7.5625 -2.765625 -7.5625 -2.765625 C -7.5625 -2.765625 -2.890625 -2.765625 -2.890625 -2.765625 C -1.984375 -2.765625 -1.546875 -3.1875 -1.546875 -4.03125 C -1.546875 -4.984375 -2.125 -5.609375 -3.03125 -5.609375 C -3.03125 -5.609375 -7.5625 -5.609375 -7.5625 -5.609375 C -7.5625 -5.609375 -7.5625 -7.578125 -7.5625 -7.578125 C -7.5625 -7.578125 0 -7.578125 0 -7.578125 Z M 0 -7.578125 "/>
</g>
<g id="glyph-8-0-473eafe9">
<path d="M 0 -7.640625 C 0 -7.640625 0 -5.6875 0 -5.6875 C 0 -5.6875 -4.65625 -5.6875 -4.65625 -5.6875 C -5.5625 -5.6875 -6.015625 -5.265625 -6.015625 -4.421875 C -6.015625 -3.46875 -5.4375 -2.84375 -4.53125 -2.84375 C -4.53125 -2.84375 0 -2.84375 0 -2.84375 C 0 -2.84375 0 -0.875 0 -0.875 C 0 -0.875 -7.5625 -0.875 -7.5625 -0.875 C -7.5625 -0.875 -7.5625 -2.84375 -7.5625 -2.84375 C -7.5625 -2.84375 -6.46875 -2.84375 -6.46875 -2.84375 C -7.3125 -3.40625 -7.6875 -4.09375 -7.6875 -5.109375 C -7.6875 -6.71875 -6.734375 -7.640625 -5.0625 -7.640625 C -5.0625 -7.640625 0 -7.640625 0 -7.640625 Z M 0 -7.640625 "/>
</g>
<g id="glyph-9-0-473eafe9">
<path d="M 7.34375 -3.5 C 7.34375 -3.5 7.34375 -3.265625 7.34375 -3.265625 C 7.34375 -3.265625 2.265625 -3.265625 2.265625 -3.265625 C 2.328125 -1.796875 2.90625 -1.375 3.84375 -1.375 C 4.546875 -1.375 5.171875 -1.578125 5.328125 -2.125 C 5.328125 -2.125 7.265625 -2.125 7.265625 -2.125 C 6.828125 -0.640625 5.453125 0.125 3.765625 0.125 C 1.625 0.125 0.3125 -1.265625 0.3125 -3.6875 C 0.3125 -6.21875 1.640625 -7.6875 3.8125 -7.6875 C 6.03125 -7.6875 7.34375 -6.109375 7.34375 -3.5 Z M 5.3125 -4.5625 C 5.203125 -5.640625 4.625 -6.1875 3.78125 -6.1875 C 2.90625 -6.1875 2.421875 -5.609375 2.296875 -4.5625 C 2.296875 -4.5625 5.3125 -4.5625 5.3125 -4.5625 Z M 5.3125 -4.5625 "/>
</g>
<g id="glyph-10-0-473eafe9">
<path d="M 2.703125 0 C 2.703125 0 1.40625 0 1.40625 0 C 1.40625 0 1.40625 -10.203125 1.40625 -10.203125 C 1.40625 -10.203125 2.703125 -10.203125 2.703125 -10.203125 C 2.703125 -10.203125 2.703125 0 2.703125 0 Z M 2.703125 0 "/>
</g>
<g id="glyph-10-1-473eafe9">
<path d="M 7.46875 0 C 7.46875 0 1.125 0 1.125 0 C 1.125 0 1.125 -10.203125 1.125 -10.203125 C 1.125 -10.203125 2.421875 -10.203125 2.421875 -10.203125 C 2.421875 -10.203125 2.421875 -1.140625 2.421875 -1.140625 C 2.421875 -1.140625 7.46875 -1.140625 7.46875 -1.140625 C 7.46875 -1.140625 7.46875 0 7.46875 0 Z M 7.46875 0 "/>
</g>
<g id="glyph-11-0-473eafe9">
<path d="M 10.578125 0 C 10.578125 0 8.15625 0 8.15625 0 C 8.15625 0 8.15625 -5.328125 8.15625 -5.328125 C 8.15625 -5.328125 3.515625 -5.328125 3.515625 -5.328125 C 3.515625 -5.328125 3.515625 0 3.515625 0 C 3.515625 0 1.09375 0 1.09375 0 C 1.09375 0 1.09375 -11.734375 1.09375 -11.734375 C 1.09375 -11.734375 3.515625 -11.734375 3.515625 -11.734375 C 3.515625 -11.734375 3.515625 -7.34375 3.515625 -7.34375 C 3.515625 -7.34375 8.15625 -7.34375 8.15625 -7.34375 C 8.15625 -7.34375 8.15625 -11.734375 8.15625 -11.734375 C 8.15625 -11.734375 10.578125 -11.734375 10.578125 -11.734375 C 10.578125 -11.734375 10.578125 0 10.578125 0 Z M 10.578125 0 "/>
</g>
<g id="glyph-11-1-473eafe9">
<path d="M 3.328125 0 C 3.328125 0 1.078125 0 1.078125 0 C 1.078125 0 1.078125 -8.6875 1.078125 -8.6875 C 1.078125 -8.6875 3.328125 -8.6875 3.328125 -8.6875 C 3.328125 -8.6875 3.328125 0 3.328125 0 Z M 3.359375 -9.734375 C 3.359375 -9.734375 1.109375 -9.734375 1.109375 -9.734375 C 1.109375 -9.734375 1.109375 -11.984375 1.109375 -11.984375 C 1.109375 -11.984375 3.359375 -11.984375 3.359375 -11.984375 C 3.359375 -11.984375 3.359375 -9.734375 3.359375 -9.734375 Z M 3.359375 -9.734375 "/>
</g>
<g id="glyph-11-2-473eafe9">
<path d="M 8.375 -2.578125 C 8.375 -0.828125 7.015625 0.140625 4.578125 0.140625 C 1.9375 0.140625 0.53125 -0.859375 0.46875 -2.75 C 0.46875 -2.75 2.671875 -2.75 2.671875 -2.75 C 2.859375 -1.8125 3.40625 -1.625 4.4375 -1.625 C 5.484375 -1.625 6.109375 -1.828125 6.109375 -2.359375 C 6.109375 -2.609375 5.921875 -2.78125 5.359375 -2.96875 C 5.359375 -2.96875 2.671875 -3.796875 2.671875 -3.796875 C 1.0625 -4.296875 0.765625 -4.875 0.765625 -5.9375 C 0.765625 -7.71875 2.140625 -8.828125 4.34375 -8.828125 C 6.671875 -8.828125 8.09375 -7.71875 8.125 -5.890625 C 8.125 -5.890625 5.953125 -5.890625 5.953125 -5.890625 C 5.9375 -6.671875 5.40625 -7.0625 4.328125 -7.0625 C 3.546875 -7.0625 3.03125 -6.75 3.03125 -6.265625 C 3.03125 -5.90625 3.1875 -5.765625 3.8125 -5.578125 C 3.8125 -5.578125 6.65625 -4.765625 6.65625 -4.765625 C 7.8125 -4.421875 8.375 -3.6875 8.375 -2.6875 C 8.375 -2.6875 8.375 -2.578125 8.375 -2.578125 Z M 8.375 -2.578125 "/>
</g>
<g id="glyph-11-3-473eafe9">
<path d="M 4.84375 0 C 4.4375 0.015625 4.046875 0.0625 3.546875 0.0625 C 2.0625 0.0625 1.328125 -0.5 1.328125 -1.859375 C 1.328125 -1.859375 1.328125 -7.015625 1.328125 -7.015625 C 1.328125 -7.015625 0.21875 -7.015625 0.21875 -7.015625 C 0.21875 -7.015625 0.21875 -8.515625 0.21875 -8.515625 C 0.21875 -8.515625 1.328125 -8.515625 1.328125 -8.515625 C 1.328125 -8.515625 1.328125 -10.84375 1.328125 -10.84375 C 1.328125 -10.84375 3.59375 -10.84375 3.59375 -10.84375 C 3.59375 -10.84375 3.59375 -8.515625 3.59375 -8.515625 C 3.59375 -8.515625 4.84375 -8.515625 4.84375 -8.515625 C 4.84375 -8.515625 4.84375 -7.015625 4.84375 -7.015625 C 4.84375 -7.015625 3.59375 -7.015625 3.59375 -7.015625 C 3.59375 -7.015625 3.59375 -2.484375 3.59375 -2.484375 C 3.59375 -1.703125 3.734375 -1.53125 4.328125 -1.53125 C 4.484375 -1.53125 4.625 -1.546875 4.84375 -1.578125 C 4.84375 -1.578125 4.84375 0 4.84375 0 Z M 4.84375 0 "/>
</g>
<g id="glyph-11-4-473eafe9">
<path d="M 9.15625 -4.28125 C 9.15625 -1.5 7.5 0.140625 4.859375 0.140625 C 2.1875 0.140625 0.5625 -1.484375 0.5625 -4.34375 C 0.5625 -7.1875 2.1875 -8.828125 4.84375 -8.828125 C 7.5625 -8.828125 9.15625 -7.21875 9.15625 -4.28125 Z M 6.90625 -4.3125 C 6.90625 -6.015625 6.09375 -7.015625 4.859375 -7.015625 C 3.640625 -7.015625 2.8125 -6 2.8125 -4.34375 C 2.8125 -2.6875 3.640625 -1.671875 4.859375 -1.671875 C 6.0625 -1.671875 6.90625 -2.6875 6.90625 -4.3125 Z M 6.90625 -4.3125 "/>
</g>
<g id="glyph-11-5-473eafe9">
<path d="M 8.703125 0.296875 C 8.703125 2.328125 7.1875 3.515625 4.578125 3.515625 C 2.1875 3.515625 0.75 2.46875 0.71875 1.046875 C 0.71875 1.046875 3.0625 1.046875 3.0625 1.046875 C 3.234375 1.703125 3.796875 2.0625 4.65625 2.0625 C 5.78125 2.0625 6.5625 1.328125 6.5625 0.296875 C 6.5625 0.296875 6.5625 -1 6.5625 -1 C 5.734375 -0.15625 5.125 0.140625 4.109375 0.140625 C 1.96875 0.140625 0.546875 -1.546875 0.546875 -4.25 C 0.546875 -6.9375 2.09375 -8.828125 4.15625 -8.828125 C 5.15625 -8.828125 5.890625 -8.390625 6.5625 -7.359375 C 6.5625 -7.359375 6.5625 -8.6875 6.5625 -8.6875 C 6.5625 -8.6875 8.703125 -8.6875 8.703125 -8.6875 C 8.703125 -8.6875 8.703125 0.296875 8.703125 0.296875 Z M 6.59375 -4.28125 C 6.59375 -5.890625 5.765625 -6.953125 4.640625 -6.953125 C 3.546875 -6.953125 2.796875 -5.921875 2.796875 -4.28125 C 2.796875 -2.703125 3.546875 -1.734375 4.609375 -1.734375 C 5.78125 -1.734375 6.59375 -2.703125 6.59375 -4.28125 Z M 6.59375 -4.28125 "/>
</g>
<g id="glyph-11-6-473eafe9">
<path d="M 5.953125 -6.53125 C 5.65625 -6.578125 5.484375 -6.59375 5.25 -6.59375 C 3.921875 -6.59375 3.265625 -5.9375 3.265625 -4.625 C 3.265625 -4.625 3.265625 0 3.265625 0 C 3.265625 0 1.015625 0 1.015625 0 C 1.015625 0 1.015625 -8.6875 1.015625 -8.6875 C 1.015625 -8.6875 3.265625 -8.6875 3.265625 -8.6875 C 3.265625 -8.6875 3.265625 -6.984375 3.265625 -6.984375 C 3.75 -8.15625 4.65625 -8.828125 5.6875 -8.828125 C 5.75 -8.828125 5.828125 -8.828125 5.953125 -8.8125 C 5.953125 -8.8125 5.953125 -6.53125 5.953125 -6.53125 Z M 5.953125 -6.53125 "/>
</g>
<g id="glyph-11-7-473eafe9">
<path d="M 8.4375 0 C 8.4375 0 5.984375 0 5.984375 0 C 5.78125 -0.25 5.734375 -0.640625 5.734375 -1.09375 C 4.9375 -0.28125 4.0625 0.140625 3.09375 0.140625 C 1.640625 0.140625 0.453125 -0.65625 0.453125 -2.34375 C 0.453125 -3.921875 1.28125 -4.671875 3.015625 -4.96875 C 3.015625 -4.96875 3.90625 -5.140625 3.90625 -5.140625 C 5.03125 -5.328125 5.71875 -5.234375 5.71875 -6.140625 C 5.71875 -6.734375 5.28125 -7.015625 4.40625 -7.015625 C 3.296875 -7.015625 2.921875 -6.734375 2.8125 -5.828125 C 2.8125 -5.828125 0.640625 -5.828125 0.640625 -5.828125 C 0.78125 -7.84375 2.015625 -8.828125 4.359375 -8.828125 C 6.71875 -8.828125 7.921875 -7.9375 7.921875 -6.15625 C 7.921875 -6.15625 7.921875 -1.328125 7.921875 -1.328125 C 7.921875 -0.890625 8.03125 -0.640625 8.4375 -0.28125 C 8.4375 -0.28125 8.4375 0 8.4375 0 Z M 5.71875 -3.71875 C 5.71875 -3.71875 5.71875 -4.109375 5.71875 -4.109375 C 5.453125 -3.96875 5.359375 -3.9375 4.765625 -3.828125 C 4.765625 -3.828125 3.984375 -3.6875 3.984375 -3.6875 C 3.0625 -3.515625 2.703125 -3.265625 2.703125 -2.609375 C 2.703125 -1.96875 3.171875 -1.671875 3.921875 -1.671875 C 5.0625 -1.671875 5.71875 -2.40625 5.71875 -3.71875 Z M 5.71875 -3.71875 "/>
</g>
<g id="glyph-11-8-473eafe9">
<path d="M 13.265625 0 C 13.265625 0 11.015625 0 11.015625 0 C 11.015625 0 11.015625 -5.796875 11.015625 -5.796875 C 11.015625 -6.484375 10.546875 -6.921875 9.78125 -6.921875 C 8.8125 -6.921875 8.234375 -6.28125 8.234375 -5.21875 C 8.234375 -5.21875 8.234375 0 8.234375 0 C 8.234375 0 5.984375 0 5.984375 0 C 5.984375 0 5.984375 -5.796875 5.984375 -5.796875 C 5.984375 -6.484375 5.515625 -6.921875 4.765625 -6.921875 C 3.796875 -6.921875 3.21875 -6.28125 3.21875 -5.21875 C 3.21875 -5.21875 3.21875 0 3.21875 0 C 3.21875 0 0.96875 0 0.96875 0 C 0.96875 0 0.96875 -8.6875 0.96875 -8.6875 C 0.96875 -8.6875 3.203125 -8.6875 3.203125 -8.6875 C 3.203125 -8.6875 3.203125 -7.609375 3.203125 -7.609375 C 3.9375 -8.5 4.59375 -8.828125 5.578125 -8.828125 C 6.65625 -8.828125 7.53125 -8.375 7.953125 -7.546875 C 8.625 -8.453125 9.40625 -8.828125 10.5 -8.828125 C 12.234375 -8.828125 13.265625 -7.84375 13.265625 -6.140625 C 13.265625 -6.140625 13.265625 0 13.265625 0 Z M 13.265625 0 "/>
</g>
<g id="glyph-11-9-473eafe9">
</g>
<g id="glyph-11-10-473eafe9">
<path d="M 5.03125 -7.015625 C 5.03125 -7.015625 3.703125 -7.015625 3.703125 -7.015625 C 3.703125 -7.015625 3.703125 0 3.703125 0 C 3.703125 0 1.453125 0 1.453125 0 C 1.453125 0 1.453125 -7.015625 1.453125 -7.015625 C 1.453125 -7.015625 0.21875 -7.015625 0.21875 -7.015625 C 0.21875 -7.015625 0.21875 -8.515625 0.21875 -8.515625 C 0.21875 -8.515625 1.453125 -8.515625 1.453125 -8.515625 C 1.453125 -8.515625 1.453125 -9.5625 1.453125 -9.5625 C 1.453125 -11.03125 2.171875 -11.734375 3.671875 -11.734375 C 3.96875 -11.734375 4.53125 -11.71875 4.953125 -11.6875 C 4.953125 -11.6875 4.953125 -10 4.953125 -10 C 4.765625 -10.03125 4.5 -10.046875 4.3125 -10.046875 C 3.890625 -10.046875 3.703125 -9.8125 3.703125 -9.359375 C 3.703125 -9.359375 3.703125 -8.515625 3.703125 -8.515625 C 3.703125 -8.515625 5.03125 -8.515625 5.03125 -8.515625 C 5.03125 -8.515625 5.03125 -7.015625 5.03125 -7.015625 Z M 5.03125 -7.015625 "/>
</g>
<g id="glyph-11-11-473eafe9">
<path d="M 8.703125 0 C 8.703125 0 6.453125 0 6.453125 0 C 6.453125 0 6.453125 -5.3125 6.453125 -5.3125 C 6.453125 -6.484375 5.875 -6.921875 5.0625 -6.921875 C 4.0625 -6.921875 3.328125 -6.21875 3.328125 -5.21875 C 3.328125 -5.21875 3.328125 0 3.328125 0 C 3.328125 0 1.078125 0 1.078125 0 C 1.078125 0 1.078125 -11.734375 1.078125 -11.734375 C 1.078125 -11.734375 3.328125 -11.734375 3.328125 -11.734375 C 3.328125 -11.734375 3.328125 -7.4375 3.328125 -7.4375 C 3.953125 -8.390625 4.765625 -8.828125 5.875 -8.828125 C 7.515625 -8.828125 8.703125 -7.859375 8.703125 -5.828125 C 8.703125 -5.828125 8.703125 0 8.703125 0 Z M 8.703125 0 "/>
</g>
<g id="glyph-11-12-473eafe9">
<path d="M 8.453125 -4.015625 C 8.453125 -4.015625 8.4375 -3.75 8.4375 -3.75 C 8.4375 -3.75 2.609375 -3.75 2.609375 -3.75 C 2.671875 -2.0625 3.34375 -1.578125 4.40625 -1.578125 C 5.234375 -1.578125 5.9375 -1.8125 6.125 -2.453125 C 6.125 -2.453125 8.359375 -2.453125 8.359375 -2.453125 C 7.859375 -0.734375 6.28125 0.140625 4.328125 0.140625 C 1.859375 0.140625 0.359375 -1.453125 0.359375 -4.234375 C 0.359375 -7.140625 1.890625 -8.828125 4.375 -8.828125 C 6.9375 -8.828125 8.453125 -7.015625 8.453125 -4.015625 Z M 6.09375 -5.25 C 5.984375 -6.484375 5.3125 -7.109375 4.34375 -7.109375 C 3.34375 -7.109375 2.78125 -6.453125 2.640625 -5.25 C 2.640625 -5.25 6.09375 -5.25 6.09375 -5.25 Z M 6.09375 -5.25 "/>
</g>
<g id="glyph-11-13-473eafe9">
<path d="M 10.640625 0 C 10.640625 0 8.21875 0 8.21875 0 C 8.21875 0 3.515625 -8.109375 3.515625 -8.109375 C 3.515625 -8.109375 3.515625 0 3.515625 0 C 3.515625 0 1.09375 0 1.09375 0 C 1.09375 0 1.09375 -11.734375 1.09375 -11.734375 C 1.09375 -11.734375 3.578125 -11.734375 3.578125 -11.734375 C 3.578125 -11.734375 8.21875 -3.75 8.21875 -3.75 C 8.21875 -3.75 8.21875 -11.734375 8.21875 -11.734375 C 8.21875 -11.734375 10.640625 -11.734375 10.640625 -11.734375 C 10.640625 -11.734375 10.640625 0 10.640625 0 Z M 10.640625 0 "/>
</g>
<g id="glyph-11-14-473eafe9">
<path d="M 8.703125 0 C 8.703125 0 6.453125 0 6.453125 0 C 6.453125 0 6.453125 -1.140625 6.453125 -1.140625 C 5.8125 -0.296875 5.015625 0.140625 3.84375 0.140625 C 2 0.140625 0.9375 -0.953125 0.9375 -2.859375 C 0.9375 -2.859375 0.9375 -8.6875 0.9375 -8.6875 C 0.9375 -8.6875 3.1875 -8.6875 3.1875 -8.6875 C 3.1875 -8.6875 3.1875 -3.328125 3.1875 -3.328125 C 3.1875 -2.28125 3.671875 -1.765625 4.640625 -1.765625 C 5.734375 -1.765625 6.453125 -2.453125 6.453125 -3.46875 C 6.453125 -3.46875 6.453125 -8.6875 6.453125 -8.6875 C 6.453125 -8.6875 8.703125 -8.6875 8.703125 -8.6875 C 8.703125 -8.6875 8.703125 0 8.703125 0 Z M 8.703125 0 "/>
</g>
<g id="glyph-11-15-473eafe9">
<path d="M 9.25 -4.234375 C 9.25 -1.609375 7.671875 0.140625 5.59375 0.140625 C 4.5 0.140625 3.75 -0.25 3.203125 -1 C 3.203125 -1 3.203125 0 3.203125 0 C 3.203125 0 0.953125 0 0.953125 0 C 0.953125 0 0.953125 -11.734375 0.953125 -11.734375 C 0.953125 -11.734375 3.203125 -11.734375 3.203125 -11.734375 C 3.203125 -11.734375 3.203125 -7.5625 3.203125 -7.5625 C 3.75 -8.4375 4.515625 -8.828125 5.59375 -8.828125 C 7.890625 -8.828125 9.25 -6.6875 9.25 -4.234375 Z M 7 -4.328125 C 7 -5.9375 6.21875 -6.953125 5.109375 -6.953125 C 3.96875 -6.953125 3.203125 -5.953125 3.203125 -4.375 C 3.203125 -2.71875 3.953125 -1.734375 5.109375 -1.734375 C 6.21875 -1.734375 7 -2.75 7 -4.328125 Z M 7 -4.328125 "/>
</g>
<g id="glyph-12-0-473eafe9">
<path d="M 8.453125 -4.015625 C 8.453125 -4.015625 8.4375 -3.75 8.4375 -3.75 C 8.4375 -3.75 2.609375 -3.75 2.609375 -3.75 C 2.671875 -2.0625 3.34375 -1.578125 4.40625 -1.578125 C 5.234375 -1.578125 5.9375 -1.8125 6.125 -2.453125 C 6.125 -2.453125 8.359375 -2.453125 8.359375 -2.453125 C 7.859375 -0.734375 6.28125 0.140625 4.328125 0.140625 C 1.859375 0.140625 0.359375 -1.453125 0.359375 -4.234375 C 0.359375 -7.140625 1.890625 -8.828125 4.375 -8.828125 C 6.9375 -8.828125 8.453125 -7.015625 8.453125 -4.015625 Z M 6.09375 -5.25 C 5.984375 -6.484375 5.3125 -7.109375 4.34375 -7.109375 C 3.34375 -7.109375 2.78125 -6.453125 2.640625 -5.25 C 2.640625 -5.25 6.09375 -5.25 6.09375 -5.25 Z M 6.09375 -5.25 "/>
</g>
<g id="glyph-12-1-473eafe9">
<path d="M 5.953125 -6.53125 C 5.65625 -6.578125 5.484375 -6.59375 5.25 -6.59375 C 3.921875 -6.59375 3.265625 -5.9375 3.265625 -4.625 C 3.265625 -4.625 3.265625 0 3.265625 0 C 3.265625 0 1.015625 0 1.015625 0 C 1.015625 0 1.015625 -8.6875 1.015625 -8.6875 C 1.015625 -8.6875 3.265625 -8.6875 3.265625 -8.6875 C 3.265625 -8.6875 3.265625 -6.984375 3.265625 -6.984375 C 3.75 -8.15625 4.65625 -8.828125 5.6875 -8.828125 C 5.75 -8.828125 5.828125 -8.828125 5.953125 -8.8125 C 5.953125 -8.8125 5.953125 -6.53125 5.953125 -6.53125 Z M 5.953125 -6.53125 "/>
</g>
<g id="glyph-12-2-473eafe9">
</g>
<g id="glyph-12-3-473eafe9">
<path d="M 11.546875 0 C 11.546875 0 8.65625 0 8.65625 0 C 8.65625 0 4.8125 -5.1875 4.8125 -5.1875 C 4.8125 -5.1875 3.609375 -3.921875 3.609375 -3.921875 C 3.609375 -3.921875 3.609375 0 3.609375 0 C 3.609375 0 1.1875 0 1.1875 0 C 1.1875 0 1.1875 -11.734375 1.1875 -11.734375 C 1.1875 -11.734375 3.609375 -11.734375 3.609375 -11.734375 C 3.609375 -11.734375 3.609375 -6.578125 3.609375 -6.578125 C 3.609375 -6.578125 8.1875 -11.734375 8.1875 -11.734375 C 8.1875 -11.734375 11.046875 -11.734375 11.046875 -11.734375 C 11.046875 -11.734375 6.359375 -6.671875 6.359375 -6.671875 C 6.359375 -6.671875 11.546875 0 11.546875 0 Z M 11.546875 0 "/>
</g>
<g id="glyph-12-4-473eafe9">
<path d="M 8.375 -2.578125 C 8.375 -0.828125 7.015625 0.140625 4.578125 0.140625 C 1.9375 0.140625 0.53125 -0.859375 0.46875 -2.75 C 0.46875 -2.75 2.671875 -2.75 2.671875 -2.75 C 2.859375 -1.8125 3.40625 -1.625 4.4375 -1.625 C 5.484375 -1.625 6.109375 -1.828125 6.109375 -2.359375 C 6.109375 -2.609375 5.921875 -2.78125 5.359375 -2.96875 C 5.359375 -2.96875 2.671875 -3.796875 2.671875 -3.796875 C 1.0625 -4.296875 0.765625 -4.875 0.765625 -5.9375 C 0.765625 -7.71875 2.140625 -8.828125 4.34375 -8.828125 C 6.671875 -8.828125 8.09375 -7.71875 8.125 -5.890625 C 8.125 -5.890625 5.953125 -5.890625 5.953125 -5.890625 C 5.9375 -6.671875 5.40625 -7.0625 4.328125 -7.0625 C 3.546875 -7.0625 3.03125 -6.75 3.03125 -6.265625 C 3.03125 -5.90625 3.1875 -5.765625 3.8125 -5.578125 C 3.8125 -5.578125 6.65625 -4.765625 6.65625 -4.765625 C 7.8125 -4.421875 8.375 -3.6875 8.375 -2.6875 C 8.375 -2.6875 8.375 -2.578125 8.375 -2.578125 Z M 8.375 -2.578125 "/>
</g>
<g id="glyph-12-5-473eafe9">
<path d="M 8.4375 0 C 8.4375 0 5.984375 0 5.984375 0 C 5.78125 -0.25 5.734375 -0.640625 5.734375 -1.09375 C 4.9375 -0.28125 4.0625 0.140625 3.09375 0.140625 C 1.640625 0.140625 0.453125 -0.65625 0.453125 -2.34375 C 0.453125 -3.921875 1.28125 -4.671875 3.015625 -4.96875 C 3.015625 -4.96875 3.90625 -5.140625 3.90625 -5.140625 C 5.03125 -5.328125 5.71875 -5.234375 5.71875 -6.140625 C 5.71875 -6.734375 5.28125 -7.015625 4.40625 -7.015625 C 3.296875 -7.015625 2.921875 -6.734375 2.8125 -5.828125 C 2.8125 -5.828125 0.640625 -5.828125 0.640625 -5.828125 C 0.78125 -7.84375 2.015625 -8.828125 4.359375 -8.828125 C 6.71875 -8.828125 7.921875 -7.9375 7.921875 -6.15625 C 7.921875 -6.15625 7.921875 -1.328125 7.921875 -1.328125 C 7.921875 -0.890625 8.03125 -0.640625 8.4375 -0.28125 C 8.4375 -0.28125 8.4375 0 8.4375 0 Z M 5.71875 -3.71875 C 5.71875 -3.71875 5.71875 -4.109375 5.71875 -4.109375 C 5.453125 -3.96875 5.359375 -3.9375 4.765625 -3.828125 C 4.765625 -3.828125 3.984375 -3.6875 3.984375 -3.6875 C 3.0625 -3.515625 2.703125 -3.265625 2.703125 -2.609375 C 2.703125 -1.96875 3.171875 -1.671875 3.921875 -1.671875 C 5.0625 -1.671875 5.71875 -2.40625 5.71875 -3.71875 Z M 5.71875 -3.71875 "/>
</g>
<g id="glyph-12-6-473eafe9">
<path d="M 13.265625 0 C 13.265625 0 11.015625 0 11.015625 0 C 11.015625 0 11.015625 -5.796875 11.015625 -5.796875 C 11.015625 -6.484375 10.546875 -6.921875 9.78125 -6.921875 C 8.8125 -6.921875 8.234375 -6.28125 8.234375 -5.21875 C 8.234375 -5.21875 8.234375 0 8.234375 0 C 8.234375 0 5.984375 0 5.984375 0 C 5.984375 0 5.984375 -5.796875 5.984375 -5.796875 C 5.984375 -6.484375 5.515625 -6.921875 4.765625 -6.921875 C 3.796875 -6.921875 3.21875 -6.28125 3.21875 -5.21875 C 3.21875 -5.21875 3.21875 0 3.21875 0 C 3.21875 0 0.96875 0 0.96875 0 C 0.96875 0 0.96875 -8.6875 0.96875 -8.6875 C 0.96875 -8.6875 3.203125 -8.6875 3.203125 -8.6875 C 3.203125 -8.6875 3.203125 -7.609375 3.203125 -7.609375 C 3.9375 -8.5 4.59375 -8.828125 5.578125 -8.828125 C 6.65625 -8.828125 7.53125 -8.375 7.953125 -7.546875 C 8.625 -8.453125 9.40625 -8.828125 10.5 -8.828125 C 12.234375 -8.828125 13.265625 -7.84375 13.265625 -6.140625 C 13.265625 -6.140625 13.265625 0 13.265625 0 Z M 13.265625 0 "/>
</g>
<g id="glyph-12-7-473eafe9">
<path d="M 9.234375 -4.34375 C 9.234375 -1.703125 7.6875 0.140625 5.59375 0.140625 C 4.5 0.140625 3.734375 -0.1875 3.1875 -1.15625 C 3.1875 -1.15625 3.1875 3.515625 3.1875 3.515625 C 3.1875 3.515625 0.9375 3.515625 0.9375 3.515625 C 0.9375 3.515625 0.9375 -8.6875 0.9375 -8.6875 C 0.9375 -8.6875 3.1875 -8.6875 3.1875 -8.6875 C 3.1875 -8.6875 3.1875 -7.40625 3.1875 -7.40625 C 3.734375 -8.375 4.5 -8.828125 5.59375 -8.828125 C 7.875 -8.828125 9.234375 -6.921875 9.234375 -4.34375 Z M 6.984375 -4.3125 C 6.984375 -5.96875 6.234375 -6.953125 5.078125 -6.953125 C 3.953125 -6.953125 3.1875 -5.96875 3.1875 -4.34375 C 3.1875 -2.71875 3.953125 -1.734375 5.078125 -1.734375 C 6.203125 -1.734375 6.984375 -2.734375 6.984375 -4.3125 Z M 6.984375 -4.3125 "/>
</g>
<g id="glyph-12-8-473eafe9">
<path d="M 3.328125 0 C 3.328125 0 1.078125 0 1.078125 0 C 1.078125 0 1.078125 -11.734375 1.078125 -11.734375 C 1.078125 -11.734375 3.328125 -11.734375 3.328125 -11.734375 C 3.328125 -11.734375 3.328125 0 3.328125 0 Z M 3.328125 0 "/>
</g>
<g id="glyph-12-9-473eafe9">
<path d="M 3.4375 -0.140625 C 3.4375 1.109375 3.21875 1.703125 2.578125 2.203125 C 2.140625 2.546875 1.6875 2.71875 1.03125 2.796875 C 1.03125 2.796875 1.03125 1.90625 1.03125 1.90625 C 1.984375 1.703125 2.40625 1.140625 2.40625 0.046875 C 2.40625 0.046875 2.40625 0 2.40625 0 C 2.40625 0 1.03125 0 1.03125 0 C 1.03125 0 1.03125 -2.34375 1.03125 -2.34375 C 1.03125 -2.34375 3.4375 -2.34375 3.4375 -2.34375 C 3.4375 -2.34375 3.4375 -0.140625 3.4375 -0.140625 Z M 3.4375 -0.140625 "/>
</g>
<g id="glyph-12-10-473eafe9">
<path d="M 9.25 -4.234375 C 9.25 -1.609375 7.671875 0.140625 5.59375 0.140625 C 4.5 0.140625 3.75 -0.25 3.203125 -1 C 3.203125 -1 3.203125 0 3.203125 0 C 3.203125 0 0.953125 0 0.953125 0 C 0.953125 0 0.953125 -11.734375 0.953125 -11.734375 C 0.953125 -11.734375 3.203125 -11.734375 3.203125 -11.734375 C 3.203125 -11.734375 3.203125 -7.5625 3.203125 -7.5625 C 3.75 -8.4375 4.515625 -8.828125 5.59375 -8.828125 C 7.890625 -8.828125 9.25 -6.6875 9.25 -4.234375 Z M 7 -4.328125 C 7 -5.9375 6.21875 -6.953125 5.109375 -6.953125 C 3.96875 -6.953125 3.203125 -5.953125 3.203125 -4.375 C 3.203125 -2.71875 3.953125 -1.734375 5.109375 -1.734375 C 6.21875 -1.734375 7 -2.75 7 -4.328125 Z M 7 -4.328125 "/>
</g>
<g id="glyph-12-11-473eafe9">
<path d="M 8.65625 -8.6875 C 8.65625 -8.6875 5.078125 1.59375 5.078125 1.59375 C 4.484375 3.25 3.703125 3.53125 2.1875 3.53125 C 1.921875 3.53125 1.71875 3.515625 1.390625 3.453125 C 1.390625 3.453125 1.390625 1.765625 1.390625 1.765625 C 1.671875 1.84375 1.796875 1.859375 1.984375 1.859375 C 2.765625 1.859375 3.375 1.234375 3.375 0.421875 C 3.375 0.421875 3.375 0.375 3.375 0.375 C 3.375 0.375 0.140625 -8.6875 0.140625 -8.6875 C 0.140625 -8.6875 2.625 -8.6875 2.625 -8.6875 C 2.625 -8.6875 4.53125 -2.359375 4.53125 -2.359375 C 4.53125 -2.359375 6.34375 -8.6875 6.34375 -8.6875 C 6.34375 -8.6875 8.65625 -8.6875 8.65625 -8.6875 Z M 8.65625 -8.6875 "/>
</g>
<g id="glyph-12-12-473eafe9">
<path d="M 4.84375 0 C 4.4375 0.015625 4.046875 0.0625 3.546875 0.0625 C 2.0625 0.0625 1.328125 -0.5 1.328125 -1.859375 C 1.328125 -1.859375 1.328125 -7.015625 1.328125 -7.015625 C 1.328125 -7.015625 0.21875 -7.015625 0.21875 -7.015625 C 0.21875 -7.015625 0.21875 -8.515625 0.21875 -8.515625 C 0.21875 -8.515625 1.328125 -8.515625 1.328125 -8.515625 C 1.328125 -8.515625 1.328125 -10.84375 1.328125 -10.84375 C 1.328125 -10.84375 3.59375 -10.84375 3.59375 -10.84375 C 3.59375 -10.84375 3.59375 -8.515625 3.59375 -8.515625 C 3.59375 -8.515625 4.84375 -8.515625 4.84375 -8.515625 C 4.84375 -8.515625 4.84375 -7.015625 4.84375 -7.015625 C 4.84375 -7.015625 3.59375 -7.015625 3.59375 -7.015625 C 3.59375 -7.015625 3.59375 -2.484375 3.59375 -2.484375 C 3.59375 -1.703125 3.734375 -1.53125 4.328125 -1.53125 C 4.484375 -1.53125 4.625 -1.546875 4.84375 -1.578125 C 4.84375 -1.578125 4.84375 0 4.84375 0 Z M 4.84375 0 "/>
</g>
<g id="glyph-12-13-473eafe9">
<path d="M 8.703125 0 C 8.703125 0 6.453125 0 6.453125 0 C 6.453125 0 6.453125 -1.140625 6.453125 -1.140625 C 5.8125 -0.296875 5.015625 0.140625 3.84375 0.140625 C 2 0.140625 0.9375 -0.953125 0.9375 -2.859375 C 0.9375 -2.859375 0.9375 -8.6875 0.9375 -8.6875 C 0.9375 -8.6875 3.1875 -8.6875 3.1875 -8.6875 C 3.1875 -8.6875 3.1875 -3.328125 3.1875 -3.328125 C 3.1875 -2.28125 3.671875 -1.765625 4.640625 -1.765625 C 5.734375 -1.765625 6.453125 -2.453125 6.453125 -3.46875 C 6.453125 -3.46875 6.453125 -8.6875 6.453125 -8.6875 C 6.453125 -8.6875 8.703125 -8.6875 8.703125 -8.6875 C 8.703125 -8.6875 8.703125 0 8.703125 0 Z M 8.703125 0 "/>
</g>
<g id="glyph-12-14-473eafe9">
<path d="M 8.765625 0 C 8.765625 0 6.515625 0 6.515625 0 C 6.515625 0 6.515625 -1 6.515625 -1 C 5.953125 -0.25 5.203125 0.140625 4.125 0.140625 C 1.8125 0.140625 0.46875 -1.859375 0.46875 -4.328125 C 0.46875 -6.953125 2.046875 -8.828125 4.125 -8.828125 C 5.203125 -8.828125 5.953125 -8.4375 6.515625 -7.5625 C 6.515625 -7.5625 6.515625 -11.734375 6.515625 -11.734375 C 6.515625 -11.734375 8.765625 -11.734375 8.765625 -11.734375 C 8.765625 -11.734375 8.765625 0 8.765625 0 Z M 6.515625 -4.296875 C 6.515625 -5.953125 5.765625 -6.953125 4.625 -6.953125 C 3.5 -6.953125 2.71875 -5.9375 2.71875 -4.328125 C 2.71875 -2.734375 3.5 -1.734375 4.625 -1.734375 C 5.75 -1.734375 6.515625 -2.71875 6.515625 -4.296875 Z M 6.515625 -4.296875 "/>
</g>
<g id="glyph-13-0-473eafe9">
<path d="M 9.15625 -4.28125 C 9.15625 -1.5 7.5 0.140625 4.859375 0.140625 C 2.1875 0.140625 0.5625 -1.484375 0.5625 -4.34375 C 0.5625 -7.1875 2.1875 -8.828125 4.84375 -8.828125 C 7.5625 -8.828125 9.15625 -7.21875 9.15625 -4.28125 Z M 6.90625 -4.3125 C 6.90625 -6.015625 6.09375 -7.015625 4.859375 -7.015625 C 3.640625 -7.015625 2.8125 -6 2.8125 -4.34375 C 2.8125 -2.6875 3.640625 -1.671875 4.859375 -1.671875 C 6.0625 -1.671875 6.90625 -2.6875 6.90625 -4.3125 Z M 6.90625 -4.3125 "/>
</g>
<g id="glyph-13-1-473eafe9">
<path d="M 5.03125 -7.015625 C 5.03125 -7.015625 3.703125 -7.015625 3.703125 -7.015625 C 3.703125 -7.015625 3.703125 0 3.703125 0 C 3.703125 0 1.453125 0 1.453125 0 C 1.453125 0 1.453125 -7.015625 1.453125 -7.015625 C 1.453125 -7.015625 0.21875 -7.015625 0.21875 -7.015625 C 0.21875 -7.015625 0.21875 -8.515625 0.21875 -8.515625 C 0.21875 -8.515625 1.453125 -8.515625 1.453125 -8.515625 C 1.453125 -8.515625 1.453125 -9.5625 1.453125 -9.5625 C 1.453125 -11.03125 2.171875 -11.734375 3.671875 -11.734375 C 3.96875 -11.734375 4.53125 -11.71875 4.953125 -11.6875 C 4.953125 -11.6875 4.953125 -10 4.953125 -10 C 4.765625 -10.03125 4.5 -10.046875 4.3125 -10.046875 C 3.890625 -10.046875 3.703125 -9.8125 3.703125 -9.359375 C 3.703125 -9.359375 3.703125 -8.515625 3.703125 -8.515625 C 3.703125 -8.515625 5.03125 -8.515625 5.03125 -8.515625 C 5.03125 -8.515625 5.03125 -7.015625 5.03125 -7.015625 Z M 5.03125 -7.015625 "/>
</g>
<g id="glyph-13-2-473eafe9">
<path d="M 10.1875 -8.09375 C 10.1875 -5.71875 8.796875 -4.1875 6.640625 -4.1875 C 6.640625 -4.1875 3.640625 -4.1875 3.640625 -4.1875 C 3.640625 -4.1875 3.640625 0 3.640625 0 C 3.640625 0 1.21875 0 1.21875 0 C 1.21875 0 1.21875 -11.734375 1.21875 -11.734375 C 1.21875 -11.734375 6.40625 -11.734375 6.40625 -11.734375 C 8.84375 -11.734375 10.1875 -10.4375 10.1875 -8.09375 Z M 7.765625 -7.953125 C 7.765625 -9.15625 7.171875 -9.71875 5.890625 -9.71875 C 5.890625 -9.71875 3.640625 -9.71875 3.640625 -9.71875 C 3.640625 -9.71875 3.640625 -6.203125 3.640625 -6.203125 C 3.640625 -6.203125 5.890625 -6.203125 5.890625 -6.203125 C 7.171875 -6.203125 7.765625 -6.765625 7.765625 -7.953125 Z M 7.765625 -7.953125 "/>
</g>
</g>
</defs>
<rect x="-60" y="-45" width="720" height="540" fill="rgb(100%, 100%, 100%)" fill-opacity="1"/>
<path fill-rule="nonzero" fill="rgb(100%, 100%, 100%)" fill-opacity="1" d="M 70 391 L 584 391 L 584 89 L 70 89 Z M 70 391 "/>
<path fill="none" stroke-width="1" stroke-linecap="butt" stroke-linejoin="miter" stroke="rgb(0%, 0%, 0%)" stroke-opacity="0.12" stroke-miterlimit="1.154701" d="M 93.363281 391 L 93.363281 89 "/>
<path fill="none" stroke-width="1" stroke-linecap="butt" stroke-linejoin="miter" stroke="rgb(0%, 0%, 0%)" stroke-opacity="0.12" stroke-miterlimit="1.154701" d="M 70 377.273438 L 584 377.273438 "/>
<path fill="none" stroke-width="1" stroke-linecap="butt" stroke-linejoin="miter" stroke="rgb(0%, 0%, 0%)" stroke-opacity="0.12" stroke-miterlimit="1.154701" d="M 70 360.53125 L 584 360.53125 "/>
<path fill="none" stroke-width="1" stroke-linecap="butt" stroke-linejoin="miter" stroke="rgb(0%, 0%, 0%)" stroke-opacity="0.12" stroke-miterlimit="1.154701" d="M 70 343.792969 L 584 343.792969 "/>
<path fill="none" stroke-width="1" stroke-linecap="butt" stroke-linejoin="miter" stroke="rgb(0%, 0%, 0%)" stroke-opacity="0.12" stroke-miterlimit="1.154701" d="M 70 327.050781 L 584 327.050781 "/>
<path fill="none" stroke-width="1" stroke-linecap="butt" stroke-linejoin="miter" stroke="rgb(0%, 0%, 0%)" stroke-opacity="0.12" stroke-miterlimit="1.154701" d="M 70 310.308594 L 584 310.308594 "/>
<path fill="none" stroke-width="1" stroke-linecap="butt" stroke-linejoin="miter" stroke="rgb(0%, 0%, 0%)" stroke-opacity="0.12" stroke-miterlimit="1.154701" d="M 70 293.570313 L 584 293.570313 "/>
<path fill="none" stroke-width="1" stroke-linecap="butt" stroke-linejoin="miter" stroke="rgb(0%, 0%, 0%)" stroke-opacity="0.12" stroke-miterlimit="1.154701" d="M 70 276.828125 L 584 276.828125 "/>
<path fill="none" stroke-width="1" stroke-linecap="butt" stroke-linejoin="miter" stroke="rgb(0%, 0%, 0%)" stroke-opacity="0.12" stroke-miterlimit="1.154701" d="M 70 260.089844 L 584 260.089844 "/>
<path fill="none" stroke-width="1" stroke-linecap="butt" stroke-linejoin="miter" stroke="rgb(0%, 0%, 0%)" stroke-opacity="0.12" stroke-miterlimit="1.154701" d="M 70 243.347656 L 584 243.347656 "/>
<path fill="none" stroke-width="1" stroke-linecap="butt" stroke-linejoin="miter" stroke="rgb(0%, 0%, 0%)" stroke-opacity="0.12" stroke-miterlimit="1.154701" d="M 70 226.609375 L 584 226.609375 "/>
<path fill="none" stroke-width="1" stroke-linecap="butt" stroke-linejoin="miter" stroke="rgb(0%, 0%, 0%)" stroke-opacity="0.12" stroke-miterlimit="1.154701" d="M 70 209.867188 L 584 209.867188 "/>
<path fill="none" stroke-width="1" stroke-linecap="butt" stroke-linejoin="miter" stroke="rgb(0%, 0%, 0%)" stroke-opacity="0.05" stroke-miterlimit="1.154701" d="M 70 385.644531 L 584 385.644531 "/>
<path fill="none" stroke-width="1" stroke-linecap="butt" stroke-linejoin="miter" stroke="rgb(0%, 0%, 0%)" stroke-opacity="0.05" stroke-miterlimit="1.154701" d="M 70 368.902344 L 584 368.902344 "/>
<path fill="none" stroke-width="1" stroke-linecap="butt" stroke-linejoin="miter" stroke="rgb(0%, 0%, 0%)" stroke-opacity="0.05" stroke-miterlimit="1.154701" d="M 70 352.160156 L 584 352.160156 "/>
<path fill="none" stroke-width="1" stroke-linecap="butt" stroke-linejoin="miter" stroke="rgb(0%, 0%, 0%)" stroke-opacity="0.05" stroke-miterlimit="1.154701" d="M 70 335.421875 L 584 335.421875 "/>
<path fill="none" stroke-width="1" stroke-linecap="butt" stroke-linejoin="miter" stroke="rgb(0%, 0%, 0%)" stroke-opacity="0.05" stroke-miterlimit="1.154701" d="M 70 318.679688 L 584 318.679688 "/>
<path fill="none" stroke-width="1" stroke-linecap="butt" stroke-linejoin="miter" stroke="rgb(0%, 0%, 0%)" stroke-opacity="0.05" stroke-miterlimit="1.154701" d="M 70 301.941406 L 584 301.941406 "/>
<path fill="none" stroke-width="1" stroke-linecap="butt" stroke-linejoin="miter" stroke="rgb(0%, 0%, 0%)" stroke-opacity="0.05" stroke-miterlimit="1.154701" d="M 70 285.199219 L 584 285.199219 "/>
<path fill="none" stroke-width="1" stroke-linecap="butt" stroke-linejoin="miter" stroke="rgb(0%, 0%, 0%)" stroke-opacity="0.05" stroke-miterlimit="1.154701" d="M 70 268.460938 L 584 268.460938 "/>
<path fill="none" stroke-width="1" stroke-linecap="butt" stroke-linejoin="miter" stroke="rgb(0%, 0%, 0%)" stroke-opacity="0.05" stroke-miterlimit="1.154701" d="M 70 251.71875 L 584 251.71875 "/>
<path fill="none" stroke-width="1" stroke-linecap="butt" stroke-linejoin="miter" stroke="rgb(0%, 0%, 0%)" stroke-opacity="0.05" stroke-miterlimit="1.154701" d="M 70 234.976563 L 584 234.976563 "/>
<path fill="none" stroke-width="1" stroke-linecap="butt" stroke-linejoin="miter" stroke="rgb(0%, 0%, 0%)" stroke-opacity="0.05" stroke-miterlimit="1.154701" d="M 70 218.238281 L 584 218.238281 "/>
<path fill="none" stroke-width="1" stroke-linecap="butt" stroke-linejoin="miter" stroke="rgb(0%, 0%, 0%)" stroke-opacity="0.05" stroke-miterlimit="1.154701" d="M 70 201.496094 L 584 201.496094 "/>
<path fill="none" stroke-width="1" stroke-linecap="butt" stroke-linejoin="miter" stroke="rgb(0%, 0%, 0%)" stroke-opacity="0.05" stroke-miterlimit="1.154701" d="M 70 193.125 L 584 193.125 "/>
<path fill="none" stroke-width="1" stroke-linecap="butt" stroke-linejoin="miter" stroke="rgb(0%, 0%, 0%)" stroke-opacity="0.05" stroke-miterlimit="1.154701" d="M 70 184.757813 L 584 184.757813 "/>
<path fill="none" stroke-width="1" stroke-linecap="butt" stroke-linejoin="miter" stroke="rgb(0%, 0%, 0%)" stroke-opacity="0.05" stroke-miterlimit="1.154701" d="M 70 176.386719 L 584 176.386719 "/>
<path fill="none" stroke-width="1" stroke-linecap="butt" stroke-linejoin="miter" stroke="rgb(0%, 0%, 0%)" stroke-opacity="0.05" stroke-miterlimit="1.154701" d="M 70 168.015625 L 584 168.015625 "/>
<path fill="none" stroke-width="1" stroke-linecap="butt" stroke-linejoin="miter" stroke="rgb(0%, 0%, 0%)" stroke-opacity="0.05" stroke-miterlimit="1.154701" d="M 70 159.644531 L 584 159.644531 "/>
<path fill="none" stroke-width="1" stroke-linecap="butt" stroke-linejoin="miter" stroke="rgb(0%, 0%, 0%)" stroke-opacity="0.05" stroke-miterlimit="1.154701" d="M 70 151.273438 L 584 151.273438 "/>
<path fill="none" stroke-width="1" stroke-linecap="butt" stroke-linejoin="miter" stroke="rgb(0%, 0%, 0%)" stroke-opacity="0.05" stroke-miterlimit="1.154701" d="M 70 142.90625 L 584 142.90625 "/>
<path fill="none" stroke-width="1" stroke-linecap="butt" stroke-linejoin="miter" stroke="rgb(0%, 0%, 0%)" stroke-opacity="0.05" stroke-miterlimit="1.154701" d="M 70 134.535156 L 584 134.535156 "/>
<path fill="none" stroke-width="1" stroke-linecap="butt" stroke-linejoin="miter" stroke="rgb(0%, 0%, 0%)" stroke-opacity="0.05" stroke-miterlimit="1.154701" d="M 70 126.164063 L 584 126.164063 "/>
<path fill="none" stroke-width="1" stroke-linecap="butt" stroke-linejoin="miter" stroke="rgb(0%, 0%, 0%)" stroke-opacity="0.05" stroke-miterlimit="1.154701" d="M 70 117.792969 L 584 117.792969 "/>
<path fill="none" stroke-width="1" stroke-linecap="butt" stroke-linejoin="miter" stroke="rgb(0%, 0%, 0%)" stroke-opacity="0.05" stroke-miterlimit="1.154701" d="M 70 109.421875 L 584 109.421875 "/>
<path fill="none" stroke-width="1" stroke-linecap="butt" stroke-linejoin="miter" stroke="rgb(0%, 0%, 0%)" stroke-opacity="0.05" stroke-miterlimit="1.154701" d="M 70 101.054688 L 584 101.054688 "/>
<path fill="none" stroke-width="1" stroke-linecap="butt" stroke-linejoin="miter" stroke="rgb(0%, 0%, 0%)" stroke-opacity="0.05" stroke-miterlimit="1.154701" d="M 70 92.683594 L 584 92.683594 "/>
<g fill="rgb(0%, 0%, 0%)" fill-opacity="1">
<use xlink:href="#glyph-0-0-473eafe9" x="85.579642" y="412.257999"/>
</g>
<g fill="rgb(0%, 0%, 0%)" fill-opacity="1">
<use xlink:href="#glyph-0-1-473eafe9" x="93.363642" y="412.257999"/>
</g>
<g fill="rgb(0%, 0%, 0%)" fill-opacity="1">
<use xlink:href="#glyph-1-0-473eafe9" x="52.216001" y="382.375726"/>
</g>
<g fill="rgb(0%, 0%, 0%)" fill-opacity="1">
<use xlink:href="#glyph-0-0-473eafe9" x="44.432001" y="365.635148"/>
</g>
<g fill="rgb(0%, 0%, 0%)" fill-opacity="1">
<use xlink:href="#glyph-1-0-473eafe9" x="52.216001" y="365.635148"/>
</g>
<g fill="rgb(0%, 0%, 0%)" fill-opacity="1">
<use xlink:href="#glyph-0-2-473eafe9" x="44.432001" y="348.89457"/>
</g>
<g fill="rgb(0%, 0%, 0%)" fill-opacity="1">
<use xlink:href="#glyph-1-0-473eafe9" x="52.216001" y="348.89457"/>
</g>
<g fill="rgb(0%, 0%, 0%)" fill-opacity="1">
<use xlink:href="#glyph-0-3-473eafe9" x="44.432001" y="332.153992"/>
</g>
<g fill="rgb(0%, 0%, 0%)" fill-opacity="1">
<use xlink:href="#glyph-1-0-473eafe9" x="52.216001" y="332.153992"/>
</g>
<g fill="rgb(0%, 0%, 0%)" fill-opacity="1">
<use xlink:href="#glyph-0-4-473eafe9" x="44.432001" y="315.413422"/>
</g>
<g fill="rgb(0%, 0%, 0%)" fill-opacity="1">
<use xlink:href="#glyph-1-0-473eafe9" x="52.216001" y="315.413422"/>
</g>
<g fill="rgb(0%, 0%, 0%)" fill-opacity="1">
<use xlink:href="#glyph-0-1-473eafe9" x="44.432001" y="298.672836"/>
</g>
<g fill="rgb(0%, 0%, 0%)" fill-opacity="1">
<use xlink:href="#glyph-1-0-473eafe9" x="52.216001" y="298.672836"/>
</g>
<g fill="rgb(0%, 0%, 0%)" fill-opacity="1">
<use xlink:href="#glyph-0-5-473eafe9" x="44.432001" y="281.932266"/>
</g>
<g fill="rgb(0%, 0%, 0%)" fill-opacity="1">
<use xlink:href="#glyph-1-0-473eafe9" x="52.216001" y="281.932266"/>
</g>
<g fill="rgb(0%, 0%, 0%)" fill-opacity="1">
<use xlink:href="#glyph-0-6-473eafe9" x="44.432001" y="265.191695"/>
</g>
<g fill="rgb(0%, 0%, 0%)" fill-opacity="1">
<use xlink:href="#glyph-1-0-473eafe9" x="52.216001" y="265.191695"/>
</g>
<g fill="rgb(0%, 0%, 0%)" fill-opacity="1">
<use xlink:href="#glyph-2-0-473eafe9" x="44.432001" y="248.451109"/>
</g>
<g fill="rgb(0%, 0%, 0%)" fill-opacity="1">
<use xlink:href="#glyph-3-0-473eafe9" x="52.216001" y="248.451109"/>
</g>
<g fill="rgb(0%, 0%, 0%)" fill-opacity="1">
<use xlink:href="#glyph-0-7-473eafe9" x="44.432001" y="231.710539"/>
</g>
<g fill="rgb(0%, 0%, 0%)" fill-opacity="1">
<use xlink:href="#glyph-1-0-473eafe9" x="52.216001" y="231.710539"/>
</g>
<g fill="rgb(0%, 0%, 0%)" fill-opacity="1">
<use xlink:href="#glyph-0-0-473eafe9" x="36.648002" y="214.969953"/>
</g>
<g fill="rgb(0%, 0%, 0%)" fill-opacity="1">
<use xlink:href="#glyph-0-8-473eafe9" x="44.432002" y="214.969953"/>
</g>
<g fill="rgb(0%, 0%, 0%)" fill-opacity="1">
<use xlink:href="#glyph-0-8-473eafe9" x="52.216002" y="214.969953"/>
</g>
<path fill-rule="nonzero" fill="rgb(67.843139%, 84.705883%, 90.196079%)" fill-opacity="1" d="M 93.363281 377.273438 L 115.613281 377.273438 L 115.613281 373.925781 L 93.363281 373.925781 Z M 93.363281 377.273438 "/>
<path fill-rule="nonzero" fill="rgb(67.843139%, 84.705883%, 90.196079%)" fill-opacity="1" d="M 315.875 377.273438 L 338.125 377.273438 L 338.125 373.925781 L 315.875 373.925781 Z M 315.875 377.273438 "/>
<path fill-rule="nonzero" fill="rgb(67.843139%, 84.705883%, 90.196079%)" fill-opacity="1" d="M 538.386719 377.273438 L 560.636719 377.273438 L 560.636719 102.726563 L 538.386719 102.726563 Z M 538.386719 377.273438 "/>
<g fill="rgb(0%, 0%, 0%)" fill-opacity="1">
<use xlink:href="#glyph-4-0-473eafe9" x="276.655036" y="82.324488"/>
</g>
<g fill="rgb(0%, 0%, 0%)" fill-opacity="1">
<use xlink:href="#glyph-4-1-473eafe9" x="286.763038" y="82.324488"/>
</g>
<g fill="rgb(0%, 0%, 0%)" fill-opacity="1">
<use xlink:href="#glyph-4-2-473eafe9" x="296.871036" y="82.324488"/>
</g>
<g fill="rgb(0%, 0%, 0%)" fill-opacity="1">
<use xlink:href="#glyph-4-3-473eafe9" x="300.763036" y="82.324488"/>
</g>
<g fill="rgb(0%, 0%, 0%)" fill-opacity="1">
<use xlink:href="#glyph-4-0-473eafe9" x="310.101036" y="82.324488"/>
</g>
<g fill="rgb(0%, 0%, 0%)" fill-opacity="1">
<use xlink:href="#glyph-4-4-473eafe9" x="320.209038" y="82.324488"/>
</g>
<g fill="rgb(0%, 0%, 0%)" fill-opacity="1">
<use xlink:href="#glyph-4-2-473eafe9" x="329.547039" y="82.324488"/>
</g>
<g fill="rgb(0%, 0%, 0%)" fill-opacity="1">
<use xlink:href="#glyph-4-5-473eafe9" x="333.439038" y="82.324488"/>
</g>
<g fill="rgb(0%, 0%, 0%)" fill-opacity="1">
<use xlink:href="#glyph-4-6-473eafe9" x="341.993035" y="82.324488"/>
</g>
<g fill="rgb(0%, 0%, 0%)" fill-opacity="1">
<use xlink:href="#glyph-4-7-473eafe9" x="352.885034" y="82.324488"/>
</g>
<g fill="rgb(0%, 0%, 0%)" fill-opacity="1">
<use xlink:href="#glyph-4-8-473eafe9" x="361.439035" y="82.324488"/>
</g>
<g fill="rgb(0%, 0%, 0%)" fill-opacity="1">
<use xlink:href="#glyph-4-9-473eafe9" x="369.223031" y="82.324488"/>
</g>
<g fill="rgb(0%, 0%, 0%)" fill-opacity="1">
<use xlink:href="#glyph-5-0-473eafe9" x="29.258004" y="259.432243"/>
</g>
<g fill="rgb(0%, 0%, 0%)" fill-opacity="1">
<use xlink:href="#glyph-6-0-473eafe9" x="29.258004" y="251.648243"/>
</g>
<g fill="rgb(0%, 0%, 0%)" fill-opacity="1">
<use xlink:href="#glyph-7-0-473eafe9" x="29.258005" y="243.094245"/>
</g>
<g fill="rgb(0%, 0%, 0%)" fill-opacity="1">
<use xlink:href="#glyph-8-0-473eafe9" x="29.258005" y="234.540247"/>
</g>
<g fill="rgb(0%, 0%, 0%)" fill-opacity="1">
<use xlink:href="#glyph-6-1-473eafe9" x="29.258006" y="225.986245"/>
</g>
<g fill="rgb(0%, 0%, 0%)" fill-opacity="1">
<use xlink:href="#glyph-4-10-473eafe9" x="210.134015" y="430.948005"/>
</g>
<g fill="rgb(0%, 0%, 0%)" fill-opacity="1">
<use xlink:href="#glyph-4-11-473eafe9" x="220.242017" y="430.948005"/>
</g>
<g fill="rgb(0%, 0%, 0%)" fill-opacity="1">
<use xlink:href="#glyph-4-12-473eafe9" x="228.796011" y="430.948005"/>
</g>
<g fill="rgb(0%, 0%, 0%)" fill-opacity="1">
<use xlink:href="#glyph-4-13-473eafe9" x="241.24201" y="430.948005"/>
</g>
<g fill="rgb(0%, 0%, 0%)" fill-opacity="1">
<use xlink:href="#glyph-9-0-473eafe9" x="249.796011" y="430.948005"/>
</g>
<g fill="rgb(0%, 0%, 0%)" fill-opacity="1">
<use xlink:href="#glyph-4-14-473eafe9" x="257.580016" y="430.948005"/>
</g>
<g fill="rgb(0%, 0%, 0%)" fill-opacity="1">
<use xlink:href="#glyph-4-15-473eafe9" x="263.026015" y="430.948005"/>
</g>
<g fill="rgb(0%, 0%, 0%)" fill-opacity="1">
<use xlink:href="#glyph-4-16-473eafe9" x="266.918013" y="430.948005"/>
</g>
<g fill="rgb(0%, 0%, 0%)" fill-opacity="1">
<use xlink:href="#glyph-4-17-473eafe9" x="275.472014" y="430.948005"/>
</g>
<g fill="rgb(0%, 0%, 0%)" fill-opacity="1">
<use xlink:href="#glyph-4-15-473eafe9" x="280.134017" y="430.948005"/>
</g>
<g fill="rgb(0%, 0%, 0%)" fill-opacity="1">
<use xlink:href="#glyph-4-3-473eafe9" x="284.026015" y="430.948005"/>
</g>
<g fill="rgb(0%, 0%, 0%)" fill-opacity="1">
<use xlink:href="#glyph-4-18-473eafe9" x="293.364013" y="430.948005"/>
</g>
<g fill="rgb(0%, 0%, 0%)" fill-opacity="1">
<use xlink:href="#glyph-4-12-473eafe9" x="301.14801" y="430.948005"/>
</g>
<g fill="rgb(0%, 0%, 0%)" fill-opacity="1">
<use xlink:href="#glyph-4-19-473eafe9" x="313.594009" y="430.948005"/>
</g>
<g fill="rgb(0%, 0%, 0%)" fill-opacity="1">
<use xlink:href="#glyph-4-20-473eafe9" x="322.14801" y="430.948005"/>
</g>
<g fill="rgb(0%, 0%, 0%)" fill-opacity="1">
<use xlink:href="#glyph-4-21-473eafe9" x="326.040009" y="430.948005"/>
</g>
<g fill="rgb(0%, 0%, 0%)" fill-opacity="1">
<use xlink:href="#glyph-4-22-473eafe9" x="333.824006" y="430.948005"/>
</g>
<g fill="rgb(0%, 0%, 0%)" fill-opacity="1">
<use xlink:href="#glyph-4-15-473eafe9" x="341.608002" y="430.948005"/>
</g>
<g fill="rgb(0%, 0%, 0%)" fill-opacity="1">
<use xlink:href="#glyph-4-19-473eafe9" x="345.500001" y="430.948005"/>
</g>
<g fill="rgb(0%, 0%, 0%)" fill-opacity="1">
<use xlink:href="#glyph-4-21-473eafe9" x="354.054002" y="430.948005"/>
</g>
<g fill="rgb(0%, 0%, 0%)" fill-opacity="1">
<use xlink:href="#glyph-4-14-473eafe9" x="361.837999" y="430.948005"/>
</g>
<g fill="rgb(0%, 0%, 0%)" fill-opacity="1">
<use xlink:href="#glyph-4-15-473eafe9" x="367.283998" y="430.948005"/>
</g>
<g fill="rgb(0%, 0%, 0%)" fill-opacity="1">
<use xlink:href="#glyph-4-4-473eafe9" x="371.175996" y="430.948005"/>
</g>
<g fill="rgb(0%, 0%, 0%)" fill-opacity="1">
<use xlink:href="#glyph-4-18-473eafe9" x="380.513994" y="430.948005"/>
</g>
<g fill="rgb(0%, 0%, 0%)" fill-opacity="1">
<use xlink:href="#glyph-4-14-473eafe9" x="388.297991" y="430.948005"/>
</g>
<g fill="rgb(0%, 0%, 0%)" fill-opacity="1">
<use xlink:href="#glyph-4-23-473eafe9" x="393.74399" y="430.948005"/>
</g>
<g fill="rgb(0%, 0%, 0%)" fill-opacity="1">
<use xlink:href="#glyph-4-24-473eafe9" x="398.405993" y="430.948005"/>
</g>
<g fill="rgb(0%, 0%, 0%)" fill-opacity="1">
<use xlink:href="#glyph-4-25-473eafe9" x="402.297991" y="430.948005"/>
</g>
<g fill="rgb(0%, 0%, 0%)" fill-opacity="1">
<use xlink:href="#glyph-4-24-473eafe9" x="410.081988" y="430.948005"/>
</g>
<g fill="rgb(0%, 0%, 0%)" fill-opacity="1">
<use xlink:href="#glyph-4-19-473eafe9" x="413.973986" y="430.948005"/>
</g>
<g fill="rgb(0%, 0%, 0%)" fill-opacity="1">
<use xlink:href="#glyph-4-18-473eafe9" x="422.527987" y="430.948005"/>
</g>
<g fill="rgb(0%, 0%, 0%)" fill-opacity="1">
<use xlink:href="#glyph-4-26-473eafe9" x="430.311984" y="430.948005"/>
</g>
<g fill="rgb(0%, 0%, 0%)" fill-opacity="1">
<use xlink:href="#glyph-4-23-473eafe9" x="438.865985" y="430.948005"/>
</g>
<g fill="rgb(0%, 0%, 0%)" fill-opacity="1">
<use xlink:href="#glyph-0-9-473eafe9" x="69.662008" y="48.014489"/>
</g>
<g fill="rgb(0%, 0%, 0%)" fill-opacity="1">
<use xlink:href="#glyph-0-10-473eafe9" x="79.770006" y="48.014489"/>
</g>
<g fill="rgb(0%, 0%, 0%)" fill-opacity="1">
<use xlink:href="#glyph-0-11-473eafe9" x="89.878008" y="48.014489"/>
</g>
<g fill="rgb(0%, 0%, 0%)" fill-opacity="1">
<use xlink:href="#glyph-0-12-473eafe9" x="93.770008" y="48.014489"/>
</g>
<g fill="rgb(0%, 0%, 0%)" fill-opacity="1">
<use xlink:href="#glyph-0-9-473eafe9" x="103.108008" y="48.014489"/>
</g>
<g fill="rgb(0%, 0%, 0%)" fill-opacity="1">
<use xlink:href="#glyph-0-13-473eafe9" x="113.21601" y="48.014489"/>
</g>
<g fill="rgb(0%, 0%, 0%)" fill-opacity="1">
<use xlink:href="#glyph-10-0-473eafe9" x="122.554011" y="48.014489"/>
</g>
<g fill="rgb(0%, 0%, 0%)" fill-opacity="1">
<use xlink:href="#glyph-10-1-473eafe9" x="126.44601" y="48.014489"/>
</g>
<g fill="rgb(0%, 0%, 0%)" fill-opacity="1">
<use xlink:href="#glyph-0-14-473eafe9" x="134.23001" y="48.014489"/>
</g>
<g fill="rgb(0%, 0%, 0%)" fill-opacity="1">
<use xlink:href="#glyph-0-15-473eafe9" x="145.122009" y="48.014489"/>
</g>
<g fill="rgb(0%, 0%, 0%)" fill-opacity="1">
<use xlink:href="#glyph-0-8-473eafe9" x="153.67601" y="48.014489"/>
</g>
<g fill="rgb(0%, 0%, 0%)" fill-opacity="1">
<use xlink:href="#glyph-0-0-473eafe9" x="161.460007" y="48.014489"/>
</g>
<g fill="rgb(0%, 0%, 0%)" fill-opacity="1">
<use xlink:href="#glyph-11-0-473eafe9" x="69.661989" y="31.246675"/>
</g>
<g fill="rgb(0%, 0%, 0%)" fill-opacity="1">
<use xlink:href="#glyph-11-1-473eafe9" x="81.286196" y="31.246675"/>
</g>
<g fill="rgb(0%, 0%, 0%)" fill-opacity="1">
<use xlink:href="#glyph-11-2-473eafe9" x="85.761995" y="31.246675"/>
</g>
<g fill="rgb(0%, 0%, 0%)" fill-opacity="1">
<use xlink:href="#glyph-11-3-473eafe9" x="94.713595" y="31.246675"/>
</g>
<g fill="rgb(0%, 0%, 0%)" fill-opacity="1">
<use xlink:href="#glyph-11-4-473eafe9" x="100.074893" y="31.246675"/>
</g>
<g fill="rgb(0%, 0%, 0%)" fill-opacity="1">
<use xlink:href="#glyph-11-5-473eafe9" x="109.91199" y="31.246675"/>
</g>
<g fill="rgb(0%, 0%, 0%)" fill-opacity="1">
<use xlink:href="#glyph-11-6-473eafe9" x="119.749087" y="31.246675"/>
</g>
<g fill="rgb(0%, 0%, 0%)" fill-opacity="1">
<use xlink:href="#glyph-11-7-473eafe9" x="126.011996" y="31.246675"/>
</g>
<g fill="rgb(0%, 0%, 0%)" fill-opacity="1">
<use xlink:href="#glyph-11-8-473eafe9" x="134.963596" y="31.246675"/>
</g>
<g fill="rgb(0%, 0%, 0%)" fill-opacity="1">
<use xlink:href="#glyph-11-9-473eafe9" x="149.276493" y="31.246675"/>
</g>
<g fill="rgb(0%, 0%, 0%)" fill-opacity="1">
<use xlink:href="#glyph-11-4-473eafe9" x="153.752293" y="31.246675"/>
</g>
<g fill="rgb(0%, 0%, 0%)" fill-opacity="1">
<use xlink:href="#glyph-11-10-473eafe9" x="163.58939" y="31.246675"/>
</g>
<g fill="rgb(0%, 0%, 0%)" fill-opacity="1">
<use xlink:href="#glyph-11-9-473eafe9" x="168.950688" y="31.246675"/>
</g>
<g fill="rgb(0%, 0%, 0%)" fill-opacity="1">
<use xlink:href="#glyph-11-3-473eafe9" x="173.426487" y="31.246675"/>
</g>
<g fill="rgb(0%, 0%, 0%)" fill-opacity="1">
<use xlink:href="#glyph-11-11-473eafe9" x="178.787785" y="31.246675"/>
</g>
<g fill="rgb(0%, 0%, 0%)" fill-opacity="1">
<use xlink:href="#glyph-11-12-473eafe9" x="188.624882" y="31.246675"/>
</g>
<g fill="rgb(0%, 0%, 0%)" fill-opacity="1">
<use xlink:href="#glyph-11-9-473eafe9" x="197.576482" y="31.246675"/>
</g>
<g fill="rgb(0%, 0%, 0%)" fill-opacity="1">
<use xlink:href="#glyph-11-13-473eafe9" x="202.052282" y="31.246675"/>
</g>
<g fill="rgb(0%, 0%, 0%)" fill-opacity="1">
<use xlink:href="#glyph-11-14-473eafe9" x="213.676488" y="31.246675"/>
</g>
<g fill="rgb(0%, 0%, 0%)" fill-opacity="1">
<use xlink:href="#glyph-11-8-473eafe9" x="223.513586" y="31.246675"/>
</g>
<g fill="rgb(0%, 0%, 0%)" fill-opacity="1">
<use xlink:href="#glyph-11-15-473eafe9" x="237.826483" y="31.246675"/>
</g>
<g fill="rgb(0%, 0%, 0%)" fill-opacity="1">
<use xlink:href="#glyph-12-0-473eafe9" x="247.66358" y="31.246675"/>
</g>
<g fill="rgb(0%, 0%, 0%)" fill-opacity="1">
<use xlink:href="#glyph-12-1-473eafe9" x="256.61518" y="31.246675"/>
</g>
<g fill="rgb(0%, 0%, 0%)" fill-opacity="1">
<use xlink:href="#glyph-12-2-473eafe9" x="262.878073" y="31.246675"/>
</g>
<g fill="rgb(0%, 0%, 0%)" fill-opacity="1">
<use xlink:href="#glyph-13-0-473eafe9" x="267.353873" y="31.246675"/>
</g>
<g fill="rgb(0%, 0%, 0%)" fill-opacity="1">
<use xlink:href="#glyph-13-1-473eafe9" x="277.19097" y="31.246675"/>
</g>
<g fill="rgb(0%, 0%, 0%)" fill-opacity="1">
<use xlink:href="#glyph-12-2-473eafe9" x="282.552268" y="31.246675"/>
</g>
<g fill="rgb(0%, 0%, 0%)" fill-opacity="1">
<use xlink:href="#glyph-13-2-473eafe9" x="287.028068" y="31.246675"/>
</g>
<g fill="rgb(0%, 0%, 0%)" fill-opacity="1">
<use xlink:href="#glyph-12-3-473eafe9" x="297.766761" y="31.246675"/>
</g>
<g fill="rgb(0%, 0%, 0%)" fill-opacity="1">
<use xlink:href="#glyph-12-2-473eafe9" x="309.390968" y="31.246675"/>
</g>
<g fill="rgb(0%, 0%, 0%)" fill-opacity="1">
<use xlink:href="#glyph-12-4-473eafe9" x="313.866768" y="31.246675"/>
</g>
<g fill="rgb(0%, 0%, 0%)" fill-opacity="1">
<use xlink:href="#glyph-12-5-473eafe9" x="322.818367" y="31.246675"/>
</g>
<g fill="rgb(0%, 0%, 0%)" fill-opacity="1">
<use xlink:href="#glyph-12-6-473eafe9" x="331.769967" y="31.246675"/>
</g>
<g fill="rgb(0%, 0%, 0%)" fill-opacity="1">
<use xlink:href="#glyph-12-7-473eafe9" x="346.082864" y="31.246675"/>
</g>
<g fill="rgb(0%, 0%, 0%)" fill-opacity="1">
<use xlink:href="#glyph-12-8-473eafe9" x="355.919961" y="31.246675"/>
</g>
<g fill="rgb(0%, 0%, 0%)" fill-opacity="1">
<use xlink:href="#glyph-12-0-473eafe9" x="360.395761" y="31.246675"/>
</g>
<g fill="rgb(0%, 0%, 0%)" fill-opacity="1">
<use xlink:href="#glyph-12-4-473eafe9" x="369.34736" y="31.246675"/>
</g>
<g fill="rgb(0%, 0%, 0%)" fill-opacity="1">
<use xlink:href="#glyph-12-9-473eafe9" x="378.298959" y="31.246675"/>
</g>
<g fill="rgb(0%, 0%, 0%)" fill-opacity="1">
<use xlink:href="#glyph-12-2-473eafe9" x="382.774759" y="31.246675"/>
</g>
<g fill="rgb(0%, 0%, 0%)" fill-opacity="1">
<use xlink:href="#glyph-12-10-473eafe9" x="387.250559" y="31.246675"/>
</g>
<g fill="rgb(0%, 0%, 0%)" fill-opacity="1">
<use xlink:href="#glyph-12-11-473eafe9" x="397.087656" y="31.246675"/>
</g>
<g fill="rgb(0%, 0%, 0%)" fill-opacity="1">
<use xlink:href="#glyph-12-2-473eafe9" x="406.039255" y="31.246675"/>
</g>
<g fill="rgb(0%, 0%, 0%)" fill-opacity="1">
<use xlink:href="#glyph-12-4-473eafe9" x="410.515055" y="31.246675"/>
</g>
<g fill="rgb(0%, 0%, 0%)" fill-opacity="1">
<use xlink:href="#glyph-12-12-473eafe9" x="419.466654" y="31.246675"/>
</g>
<g fill="rgb(0%, 0%, 0%)" fill-opacity="1">
<use xlink:href="#glyph-12-13-473eafe9" x="424.827952" y="31.246675"/>
</g>
<g fill="rgb(0%, 0%, 0%)" fill-opacity="1">
<use xlink:href="#glyph-12-14-473eafe9" x="434.66505" y="31.246675"/>
</g>
<g fill="rgb(0%, 0%, 0%)" fill-opacity="1">
<use xlink:href="#glyph-12-11-473eafe9" x="444.502147" y="31.246675"/>
</g>
<path fill="none" stroke-width="1" stroke-linecap="butt" stroke-linejoin="miter" stroke="rgb(0%, 0%, 0%)" stroke-opacity="1" stroke-miterlimit="1.154701" d="M 93.363281 391.5 L 93.363281 396.5 "/>
<path fill="none" stroke-width="1" stroke-linecap="butt" stroke-linejoin="miter" stroke="rgb(0%, 0%, 0%)" stroke-opacity="1" stroke-miterlimit="1.154701" d="M 69.5 377.273438 L 64.5 377.273438 "/>
<path fill="none" stroke-width="1" stroke-linecap="butt" stroke-linejoin="miter" stroke="rgb(0%, 0%, 0%)" stroke-opacity="1" stroke-miterlimit="1.154701" d="M 69.5 360.53125 L 64.5 360.53125 "/>
<path fill="none" stroke-width="1" stroke-linecap="butt" stroke-linejoin="miter" stroke="rgb(0%, 0%, 0%)" stroke-opacity="1" stroke-miterlimit="1.154701" d="M 69.5 343.792969 L 64.5 343.792969 "/>
<path fill="none" stroke-width="1" stroke-linecap="butt" stroke-linejoin="miter" stroke="rgb(0%, 0%, 0%)" stroke-opacity="1" stroke-miterlimit="1.154701" d="M 69.5 327.050781 L 64.5 327.050781 "/>
<path fill="none" stroke-width="1" stroke-linecap="butt" stroke-linejoin="miter" stroke="rgb(0%, 0%, 0%)" stroke-opacity="1" stroke-miterlimit="1.154701" d="M 69.5 310.308594 L 64.5 310.308594 "/>
<path fill="none" stroke-width="1" stroke-linecap="butt" stroke-linejoin="miter" stroke="rgb(0%, 0%, 0%)" stroke-opacity="1" stroke-miterlimit="1.154701" d="M 69.5 293.570313 L 64.5 293.570313 "/>
<path fill="none" stroke-width="1" stroke-linecap="butt" stroke-linejoin="miter" stroke="rgb(0%, 0%, 0%)" stroke-opacity="1" stroke-miterlimit="1.154701" d="M 69.5 276.828125 L 64.5 276.828125 "/>
<path fill="none" stroke-width="1" stroke-linecap="butt" stroke-linejoin="miter" stroke="rgb(0%, 0%, 0%)" stroke-opacity="1" stroke-miterlimit="1.154701" d="M 69.5 260.089844 L 64.5 260.089844 "/>
<path fill="none" stroke-width="1" stroke-linecap="butt" stroke-linejoin="miter" stroke="rgb(0%, 0%, 0%)" stroke-opacity="1" stroke-miterlimit="1.154701" d="M 69.5 243.347656 L 64.5 243.347656 "/>
<path fill="none" stroke-width="1" stroke-linecap="butt" stroke-linejoin="miter" stroke="rgb(0%, 0%, 0%)" stroke-opacity="1" stroke-miterlimit="1.154701" d="M 69.5 226.609375 L 64.5 226.609375 "/>
<path fill="none" stroke-width="1" stroke-linecap="butt" stroke-linejoin="miter" stroke="rgb(0%, 0%, 0%)" stroke-opacity="1" stroke-miterlimit="1.154701" d="M 69.5 209.867188 L 64.5 209.867188 "/>
<path fill="none" stroke-width="1" stroke-linecap="butt" stroke-linejoin="miter" stroke="rgb(60.000002%, 60.000002%, 60.000002%)" stroke-opacity="1" stroke-miterlimit="1.154701" d="M 69.5 391 L 584.5 391 "/>
<path fill="none" stroke-width="1" stroke-linecap="butt" stroke-linejoin="miter" stroke="rgb(60.000002%, 60.000002%, 60.000002%)" stroke-opacity="1" stroke-miterlimit="1.154701" d="M 70 391.5 L 70 88.5 "/>
<path fill="none" stroke-width="1" stroke-linecap="butt" stroke-linejoin="miter" stroke="rgb(60.000002%, 60.000002%, 60.000002%)" stroke-opacity="1" stroke-miterlimit="1.154701" d="M 69.5 89 L 584.5 89 "/>
<path fill="none" stroke-width="1" stroke-linecap="butt" stroke-linejoin="miter" stroke="rgb(60.000002%, 60.000002%, 60.000002%)" stroke-opacity="1" stroke-miterlimit="1.154701" d="M 584 391.5 L 584 88.5 "/>
</svg>
